<svg xmlns="http://www.w3.org/2000/svg" version="1.1" xmlns:xlink="http://www.w3.org/1999/xlink" width="512" height="512" x="0" y="0" viewBox="0 0 512 512" style="enable-background:new 0 0 512 512" xml:space="preserve" class=""><g><g fill-rule="evenodd"><path fill="#ddebfd" d="M256.015 301.119c82.915 0 150.559-67.644 150.559-150.56C406.574 67.615 338.93 0 256.015 0c-82.945 0-150.56 67.615-150.56 150.559 0 82.916 67.615 150.56 150.56 150.56z" opacity="1" data-original="#ddebfd" class=""></path><path fill="#c7d4e4" d="M256.015 0c3.439 0 6.819.117 10.2.35a150.636 150.636 0 0 0-132.869 197.1 27.724 27.724 0 0 0-8.86 19.964v6.47A150.606 150.606 0 0 1 256.015 0z" opacity="1" data-original="#c7d4e4"></path><path fill="#fbbd80" d="M212.182 109.67a27.775 27.775 0 1 0-27.775-27.77 27.824 27.824 0 0 0 27.775 27.774z" opacity="1" data-original="#fbbd80" class=""></path><path fill="#45bf64" d="M170.126 218.874h84.082a1.781 1.781 0 0 0 1.807-1.72v-77.932c0-16.233-15.01-29.552-33.371-29.552H201.69c-18.332 0-33.342 13.319-33.342 29.552v77.932a1.755 1.755 0 0 0 1.778 1.72z" opacity="1" data-original="#45bf64"></path><path fill="#fbbd80" d="M299.848 109.67a27.775 27.775 0 1 0-27.775-27.77 27.824 27.824 0 0 0 27.775 27.774z" opacity="1" data-original="#fbbd80" class=""></path><path fill="#0091ca" d="M257.792 218.874H341.9a1.774 1.774 0 0 0 1.778-1.72v-77.932c0-16.233-15.01-29.552-33.371-29.552h-20.922c-18.361 0-33.37 13.319-33.37 29.552v77.932a1.754 1.754 0 0 0 1.777 1.72z" opacity="1" data-original="#0091ca" class=""></path><path fill="#fbbd80" d="M168.348 187.894a27.775 27.775 0 1 0-27.8-27.775 27.843 27.843 0 0 0 27.8 27.775zM256.015 187.894a27.775 27.775 0 1 0-27.775-27.775 27.824 27.824 0 0 0 27.775 27.775zM343.681 187.894a27.775 27.775 0 1 0-27.775-27.775 27.824 27.824 0 0 0 27.775 27.775z" opacity="1" data-original="#fbbd80" class=""></path><path fill="#0083b6" d="M212.182 294.62a151.006 151.006 0 0 1-87.7-70.733v-6.47c0-16.234 15.039-29.523 33.37-29.523h20.955c18.332 0 33.371 13.289 33.371 29.523z" opacity="1" data-original="#0083b6"></path><path fill="#f54756" d="M299.848 294.62a151.067 151.067 0 0 1-87.666 0v-77.2c0-16.234 15.009-29.523 33.341-29.523h20.954c18.361 0 33.371 13.289 33.371 29.523z" opacity="1" data-original="#f54756"></path><path fill="#e5c53b" d="M387.514 223.887v-6.47c0-16.234-15.01-29.523-33.37-29.523h-20.926c-18.361 0-33.37 13.289-33.37 29.523v77.2a151.036 151.036 0 0 0 87.666-70.733z" opacity="1" data-original="#e5c53b"></path></g><path fill="#fbbd80" d="M390.02 366.344a7.193 7.193 0 1 1-8.51-11.6l45.669-33.691c.146-.088.262-.175.408-.262 10.113-7.636 13.115-16.059 11.716-23.083a19.274 19.274 0 0 0-3.555-7.723 21.858 21.858 0 0 0-6.762-5.858c-7.082-3.993-16.583-4.284-25.268 2.1l-.029.029-76.154 56.191a34.7 34.7 0 0 0-11.367 13.931 52.637 52.637 0 0 0-4.138 18.448l-7.111 110.4 97.458 15.446 11.658-73.5a42.683 42.683 0 0 1 5.479-15.3A41.633 41.633 0 0 1 430.5 399.86l30.077-22.645a46.964 46.964 0 0 0 13.581-15.184 39.777 39.777 0 0 0 4.634-18.536l2.36-170.844a455.69 455.69 0 0 1-.174-4.809c-.292-9.093-.583-18.973-12.154-21.071a5.457 5.457 0 0 1-.991-.175 15.605 15.605 0 0 0-10.375 2.157 10.548 10.548 0 0 0-5.013 6.936l-12.326 118.646a36.46 36.46 0 0 1 7.053 7 33.217 33.217 0 0 1 6.179 13.552c2.419 12.037-1.895 25.851-17.195 37.363a3.314 3.314 0 0 1-.5.408z" opacity="1" data-original="#fbbd80" class=""></path><path fill="#685e68" fill-rule="evenodd" d="m268.518 477.85 6.236-39.432a8.78 8.78 0 0 1 10.026-7.286l151.58 24.015a8.8 8.8 0 0 1 7.286 10.025l-6.266 39.433a8.78 8.78 0 0 1-10.026 7.286L275.8 487.876a8.78 8.78 0 0 1-7.286-10.026z" opacity="1" data-original="#685e68" class=""></path><path fill="#eaf6ff" d="M297.749 469.515a7.17 7.17 0 1 1 2.244-14.164l.263.058a7.173 7.173 0 0 1-2.274 14.164z" opacity="1" data-original="#eaf6ff"></path><path fill="#fbbd80" d="M130.49 354.745a7.184 7.184 0 0 1-8.481 11.6L76.34 332.653a5.936 5.936 0 0 1-.5-.408c-15.3-11.512-19.584-25.326-17.166-37.363a33.217 33.217 0 0 1 6.179-13.552 35.664 35.664 0 0 1 7.053-7L59.553 155.689a10.6 10.6 0 0 0-4.984-6.936 15.68 15.68 0 0 0-10.375-2.153 6.508 6.508 0 0 1-.991.175c-11.57 2.1-11.891 11.978-12.153 21.071-.059 1.778-.117 3.5-.2 4.809L33.235 343.5a39.413 39.413 0 0 0 4.605 18.536 47.063 47.063 0 0 0 13.611 15.184l30.077 22.64a41.032 41.032 0 0 1 16.437 27.308l11.658 73.5 97.458-15.446-7.111-110.4a53.276 53.276 0 0 0-4.109-18.448 34.779 34.779 0 0 0-11.4-13.931l-76.154-56.191-.029-.029c-8.656-6.382-18.186-6.091-25.239-2.1a21.952 21.952 0 0 0-6.79 5.858 19.207 19.207 0 0 0-3.527 7.723c-1.428 7.024 1.574 15.447 11.687 23.083l.437.262z" opacity="1" data-original="#fbbd80" class=""></path><path fill="#685e68" fill-rule="evenodd" d="m243.512 477.85-6.266-39.432a8.78 8.78 0 0 0-10.026-7.286L75.67 455.147a8.779 8.779 0 0 0-7.286 10.025l6.236 39.433a8.793 8.793 0 0 0 10.055 7.286l151.551-24.015a8.8 8.8 0 0 0 7.286-10.026z" opacity="1" data-original="#685e68" class=""></path><path fill="#eaf6ff" d="M212.036 455.351a7.17 7.17 0 0 1 2.244 14.164l-.262.058a7.17 7.17 0 1 1-2.244-14.164z" opacity="1" data-original="#eaf6ff"></path><path fill="#5e555e" fill-rule="evenodd" d="M90.766 502.069 84.5 462.608a8.8 8.8 0 0 1 7.286-10.026l-16.116 2.565a8.779 8.779 0 0 0-7.286 10.025l6.236 39.433a8.793 8.793 0 0 0 10.055 7.286l16.059-2.536a8.788 8.788 0 0 1-9.968-7.286zM284.663 480.415l6.237-39.462a8.8 8.8 0 0 1 10.026-7.286l-16.146-2.535a8.78 8.78 0 0 0-10.026 7.286l-6.236 39.432a8.78 8.78 0 0 0 7.286 10.026l16.087 2.564a8.8 8.8 0 0 1-7.228-10.025z" opacity="1" data-original="#5e555e" class=""></path><path fill="#e2aa73" fill-rule="evenodd" d="M97.528 390.446 67.451 367.83a47.249 47.249 0 0 1-13.581-15.184 39.97 39.97 0 0 1-4.634-18.565l-2.361-170.844c.087-1.282.117-3.031.175-4.779.116-4.052.262-8.248 1.4-11.862a17.3 17.3 0 0 0-4.255 0 6.508 6.508 0 0 1-.991.175c-11.57 2.1-11.891 11.978-12.153 21.071-.059 1.778-.117 3.5-.2 4.809L33.235 343.5a39.413 39.413 0 0 0 4.605 18.536 47.063 47.063 0 0 0 13.611 15.184l30.077 22.64a41.032 41.032 0 0 1 16.437 27.308l3.789 23.84 17.078-2.71-4.838-30.543a41.4 41.4 0 0 0-16.466-27.309zM414.472 390.446l30.077-22.616a47.361 47.361 0 0 0 13.611-15.184 39.614 39.614 0 0 0 4.6-18.565l2.361-170.844a444.651 444.651 0 0 1-.175-4.779c-.116-4.052-.233-8.248-1.37-11.862a17.3 17.3 0 0 1 4.255 0 5.457 5.457 0 0 0 .991.175c11.571 2.1 11.862 11.978 12.154 21.071.058 1.778.116 3.5.174 4.809L478.794 343.5a39.777 39.777 0 0 1-4.634 18.536 46.964 46.964 0 0 1-13.581 15.184L430.5 399.86a41.633 41.633 0 0 0-10.988 12.007 42.683 42.683 0 0 0-5.479 15.3l-3.76 23.84L393.2 448.3l4.838-30.543a41.731 41.731 0 0 1 5.45-15.272 42.572 42.572 0 0 1 10.987-12.037z" opacity="1" data-original="#e2aa73" class=""></path><path fill="#0091ca" fill-rule="evenodd" d="M212.182 290.8a150.975 150.975 0 0 1-76.708-66.915v-6.47c0-16.234 15.038-29.523 33.37-29.523h9.967c18.332 0 33.371 13.289 33.371 29.523z" opacity="1" data-original="#0091ca" class=""></path><path fill="#dd404d" fill-rule="evenodd" d="M225.675 218.874v-1.457c0-15.33 13.378-28.037 30.34-29.407.99-.087 1.981-.116 3-.116h-13.492c-18.332 0-33.341 13.289-33.341 29.523v77.2a150.186 150.186 0 0 0 43.833 6.5c2.244 0 4.517-.058 6.732-.146a150.94 150.94 0 0 1-37.072-6.353z" opacity="1" data-original="#dd404d" class=""></path><path fill="#fedb41" fill-rule="evenodd" d="M354.144 187.894h-9.56c-18.361 0-33.37 13.289-33.37 29.523v73.239a151.206 151.206 0 0 0 76.3-66.769v-6.47c0-16.234-15.01-29.523-33.37-29.523z" opacity="1" data-original="#fedb41" class=""></path><path fill="#3eac5a" fill-rule="evenodd" d="M169.252 132.344a27.965 27.965 0 0 1 10.813 2.594c2.36-14.252 16.291-25.268 33.02-25.268h-11.4c-15.68 0-28.912 9.734-32.438 22.674z" opacity="1" data-original="#3eac5a"></path><path fill="#0083b6" fill-rule="evenodd" d="M267.556 134.851c2.419-14.194 16.32-25.181 32.991-25.181h-11.162c-15.709 0-28.941 9.734-32.467 22.674a28.191 28.191 0 0 1 10.638 2.507z" opacity="1" data-original="#0083b6"></path><path fill="#e2aa73" fill-rule="evenodd" d="M272.073 81.9a27.769 27.769 0 0 0 27.775 27.774 27.061 27.061 0 0 0 4.634-.379 27.764 27.764 0 0 1 0-54.762 27.168 27.168 0 0 0-4.634-.408A27.787 27.787 0 0 0 272.073 81.9zm-78.427 0a27.763 27.763 0 0 1 23.14-27.367 26.554 26.554 0 0 0-4.6-.408 27.775 27.775 0 1 0 0 55.549 26.467 26.467 0 0 0 4.6-.379 27.77 27.77 0 0 1-23.14-27.395zm-25.3 104.424a27.79 27.79 0 0 1 .583-52.606 26.17 26.17 0 0 1 4.022-.991 30.752 30.752 0 0 0-3.7-.379h-.9a27.775 27.775 0 1 0 0 55.55 29.764 29.764 0 0 0 4.6-.379 27.563 27.563 0 0 1-4.6-1.195zm59.892-26.2a27.769 27.769 0 0 0 27.775 27.775 30.464 30.464 0 0 0 4.634-.379 27.127 27.127 0 0 1-4.634-1.195 27.8 27.8 0 0 1-.525-52.227c.379-.116.729-.262 1.107-.379a26.546 26.546 0 0 1 4.052-.991 31.9 31.9 0 0 0-3.731-.379h-1.836a27.794 27.794 0 0 0-26.842 27.775zm87.666 0a27.787 27.787 0 0 0 27.775 27.775 30.454 30.454 0 0 0 4.634-.379 27.127 27.127 0 0 1-4.634-1.195 27.79 27.79 0 0 1-.5-52.227 27.159 27.159 0 0 1 5.13-1.37 27.153 27.153 0 0 0-4.634-.379h-.9a27.8 27.8 0 0 0-26.871 27.775z" opacity="1" data-original="#e2aa73" class=""></path></g></svg>