<?xml version="1.0" encoding="UTF-8"?>
<!DOCTYPE svg PUBLIC "-//W3C//DTD SVG 1.1//EN" "http://www.w3.org/Graphics/SVG/1.1/DTD/svg11.dtd">
<!-- Creator: CorelDRAW -->
<svg xmlns="http://www.w3.org/2000/svg" xml:space="preserve" width="19.7172in" height="4.05202in" version="1.1" style="shape-rendering:geometricPrecision; text-rendering:geometricPrecision; image-rendering:optimizeQuality; fill-rule:evenodd; clip-rule:evenodd"
viewBox="0 0 2779.17 571.14"
 xmlns:xlink="http://www.w3.org/1999/xlink"
 xmlns:xodm="http://www.corel.com/coreldraw/odm/2003">
 <defs>
  <style type="text/css">
   <![CDATA[
    .fil137 {fill:#027DBE}
    .fil2 {fill:#027DBF}
    .fil1 {fill:#027EBF}
    .fil0 {fill:#027EC0}
    .fil138 {fill:#027FC0}
    .fil139 {fill:#027FC1}
    .fil140 {fill:#027FC1}
    .fil134 {fill:#0379B7}
    .fil10 {fill:#0379B8}
    .fil135 {fill:#037AB8}
    .fil9 {fill:#037AB9}
    .fil8 {fill:#037ABA}
    .fil7 {fill:#037BBA}
    .fil6 {fill:#037BBB}
    .fil5 {fill:#037CBC}
    .fil4 {fill:#037CBD}
    .fil136 {fill:#037DBD}
    .fil3 {fill:#037DBE}
    .fil18 {fill:#0475B1}
    .fil17 {fill:#0476B2}
    .fil16 {fill:#0476B3}
    .fil15 {fill:#0477B4}
    .fil14 {fill:#0477B5}
    .fil13 {fill:#0478B5}
    .fil12 {fill:#0478B6}
    .fil11 {fill:#0479B7}
    .fil25 {fill:#0571AB}
    .fil132 {fill:#0572AB}
    .fil24 {fill:#0572AC}
    .fil23 {fill:#0573AD}
    .fil22 {fill:#0573AE}
    .fil133 {fill:#0574AE}
    .fil21 {fill:#0574AF}
    .fil20 {fill:#0574B0}
    .fil19 {fill:#0575B0}
    .fil32 {fill:#066DA4}
    .fil31 {fill:#066EA5}
    .fil30 {fill:#066EA6}
    .fil130 {fill:#066FA6}
    .fil29 {fill:#066FA7}
    .fil28 {fill:#0670A8}
    .fil27 {fill:#0670A9}
    .fil131 {fill:#0671A9}
    .fil26 {fill:#0671AA}
    .fil127 {fill:#07699D}
    .fil39 {fill:#07699E}
    .fil38 {fill:#076A9E}
    .fil37 {fill:#076A9F}
    .fil128 {fill:#076B9F}
    .fil36 {fill:#076BA0}
    .fil35 {fill:#076BA1}
    .fil129 {fill:#076CA1}
    .fil34 {fill:#076CA2}
    .fil33 {fill:#076DA3}
    .fil124 {fill:#086596}
    .fil47 {fill:#086597}
    .fil125 {fill:#086697}
    .fil46 {fill:#086698}
    .fil45 {fill:#086699}
    .fil44 {fill:#086799}
    .fil43 {fill:#08679A}
    .fil42 {fill:#08689B}
    .fil41 {fill:#08689C}
    .fil126 {fill:#08699C}
    .fil40 {fill:#08699D}
    .fil55 {fill:#096190}
    .fil123 {fill:#096290}
    .fil54 {fill:#096291}
    .fil53 {fill:#096292}
    .fil52 {fill:#096393}
    .fil51 {fill:#096394}
    .fil50 {fill:#096494}
    .fil49 {fill:#096495}
    .fil48 {fill:#096596}
    .fil62 {fill:#0A5D89}
    .fil61 {fill:#0A5E8A}
    .fil60 {fill:#0A5E8B}
    .fil59 {fill:#0A5F8C}
    .fil122 {fill:#0A5F8D}
    .fil58 {fill:#0A608D}
    .fil57 {fill:#0A608E}
    .fil56 {fill:#0A618F}
    .fil69 {fill:#0B5983}
    .fil68 {fill:#0B5A84}
    .fil121 {fill:#0B5A85}
    .fil67 {fill:#0B5B85}
    .fil66 {fill:#0B5B86}
    .fil65 {fill:#0B5C87}
    .fil64 {fill:#0B5C88}
    .fil63 {fill:#0B5D88}
    .fil77 {fill:#0C557C}
    .fil76 {fill:#0C567D}
    .fil75 {fill:#0C567E}
    .fil74 {fill:#0C577F}
    .fil73 {fill:#0C5780}
    .fil72 {fill:#0C5880}
    .fil71 {fill:#0C5881}
    .fil70 {fill:#0C5982}
    .fil85 {fill:#0D5175}
    .fil119 {fill:#0D5176}
    .fil84 {fill:#0D5276}
    .fil83 {fill:#0D5277}
    .fil82 {fill:#0D5378}
    .fil120 {fill:#0D5379}
    .fil81 {fill:#0D5479}
    .fil80 {fill:#0D547A}
    .fil79 {fill:#0D547B}
    .fil78 {fill:#0D557C}
    .fil93 {fill:#0E4D6F}
    .fil92 {fill:#0E4E70}
    .fil91 {fill:#0E4E71}
    .fil90 {fill:#0E4F71}
    .fil89 {fill:#0E4F72}
    .fil118 {fill:#0E4F73}
    .fil88 {fill:#0E5073}
    .fil87 {fill:#0E5074}
    .fil86 {fill:#0E5175}
    .fil116 {fill:#0F4968}
    .fil100 {fill:#0F4969}
    .fil99 {fill:#0F4A69}
    .fil98 {fill:#0F4A6A}
    .fil117 {fill:#0F4B6A}
    .fil97 {fill:#0F4B6B}
    .fil96 {fill:#0F4B6C}
    .fil95 {fill:#0F4C6D}
    .fil94 {fill:#0F4D6E}
    .fil109 {fill:#104561}
    .fil108 {fill:#104662}
    .fil107 {fill:#104663}
    .fil114 {fill:#104664}
    .fil106 {fill:#104764}
    .fil105 {fill:#104765}
    .fil104 {fill:#104865}
    .fil103 {fill:#104866}
    .fil102 {fill:#104867}
    .fil115 {fill:#104967}
    .fil101 {fill:#104968}
    .fil113 {fill:#11435E}
    .fil112 {fill:#11445F}
    .fil111 {fill:#114460}
    .fil110 {fill:#114561}
    .fil145 {fill:#114E3C}
    .fil146 {fill:#15573C}
    .fil144 {fill:#266B34}
    .fil143 {fill:#41872E}
    .fil142 {fill:#61A01E}
    .fil141 {fill:#649F1E}
    .fil148 {fill:#A5B1C2;fill-rule:nonzero}
    .fil147 {fill:url(#id2);fill-rule:nonzero}
   ]]>
  </style>
     <clipPath id="id0">
      <path d="M98.18 156.29c74.87,-93.09 138.99,-133.71 238.61,-133.71 145.17,0 262.14,121.97 262.14,266.89l21.5 0c0,-157.39 -125.97,-289.47 -283.63,-289.47 -109.11,0 -219.33,70.27 -238.61,156.29z"/>
     </clipPath>
     <clipPath id="id1">
      <path d="M591.95 408.94c-39.27,76.15 -114.56,154.86 -256.85,161.89 -142.28,7.04 -269.4,-109.67 -283.46,-252.54l-11.29 0c-2.44,0 -4.44,-2 -4.44,-4.44l0 -34.26c0,-2.44 2,-4.44 4.44,-4.44l17.97 0c-0.09,-20.48 -3.02,-42.9 -5.41,-65.78l-10.22 0c-2.44,0 -4.44,-2 -4.44,-4.44l0 -18.1c0,-2.44 2,-4.44 4.44,-4.44l7.87 0c-0.2,-3.23 -0.37,-6.46 -0.49,-9.69 -0.06,-1.71 1.44,-2.75 3.1,-3.1 11.95,-2.57 22.48,-3.86 33.01,-3.85 10.49,0 20.99,1.29 32.91,3.85 1.67,0.36 3.17,1.4 3.1,3.1 -0.12,3.22 -0.29,6.45 -0.49,9.69l7.87 0c2.44,0 4.44,2 4.44,4.44l0 18.1c0,2.44 -2,4.44 -4.44,4.44l-10.22 0c-2.39,22.88 -5.32,45.3 -5.41,65.78l16.14 0c2.44,0 4.44,2 4.44,4.44l0 34.26c0,2.44 -2,4.44 -4.44,4.44l-11.27 0c-1.84,98.86 107.01,207.55 217.62,213.21 110.61,5.66 190.92,-30.49 255.51,-122.57zm-506.43 -72.31l-7.82 0.54c14.9,102.45 79.3,172.72 181.38,201.48 -94.79,-40.62 -152.6,-111.54 -173.56,-202.02zm0.62 -155.23c3.45,0 6.25,2.96 6.25,6.62 0,3.66 -2.8,6.62 -6.25,6.62 -3.45,0 -6.25,-2.96 -6.25,-6.62 0,-3.66 2.8,-6.62 6.25,-6.62zm-19.26 0c3.45,0 6.25,2.96 6.25,6.62 0,3.66 -2.8,6.62 -6.25,6.62 -3.45,0 -6.25,-2.96 -6.25,-6.62 0,-3.66 2.8,-6.62 6.25,-6.62zm38.52 0c3.45,0 6.25,2.96 6.25,6.62 0,3.66 -2.8,6.62 -6.25,6.62 -3.45,0 -6.25,-2.96 -6.25,-6.62 0,-3.66 2.8,-6.62 6.25,-6.62z"/>
     </clipPath>
  <linearGradient id="id2" gradientUnits="userSpaceOnUse" x1="1811.33" y1="431.66" x2="1811.33" y2="218.48">
   <stop offset="0" style="stop-opacity:1; stop-color:#11435E"/>
   <stop offset="0.235294" style="stop-opacity:1; stop-color:#0A618F"/>
   <stop offset="0.478431" style="stop-opacity:1; stop-color:#027FC1"/>
   <stop offset="1" style="stop-opacity:1; stop-color:#11435E"/>
  </linearGradient>
 </defs>
 <g id="Layer_x0020_1">
  <metadata id="CorelCorpID_0Corel-Layer"/>
  <g id="_1431964002304">
   <g>
    <g style="clip-path:url(#id0)">
     <polygon class="fil0" points="374.97,173.68 -43.18,172.26 -42.8,163.73 "/>
     <polygon id="_1" class="fil1" points="374.97,173.68 -42.86,165.15 -42.23,158.05 "/>
     <polygon id="_2" class="fil2" points="374.97,173.68 -42.36,159.47 -41.42,152.38 "/>
     <polygon id="_3" class="fil3" points="374.97,173.68 -41.6,153.8 -40.35,146.72 "/>
     <polygon id="_4" class="fil4" points="374.97,173.68 -40.6,148.14 -39.03,141.08 "/>
     <polygon id="_5" class="fil5" points="374.97,173.68 -39.34,142.49 -37.46,135.46 "/>
     <polygon id="_6" class="fil6" points="374.97,173.68 -37.84,136.86 -35.64,129.86 "/>
     <polygon id="_7" class="fil7" points="374.97,173.68 -36.08,131.26 -33.58,124.29 "/>
     <polygon id="_8" class="fil8" points="374.97,173.68 -34.08,125.68 -31.27,118.74 "/>
     <polygon id="_9" class="fil9" points="374.97,173.68 -31.83,120.13 -28.71,113.23 "/>
     <polygon id="_10" class="fil10" points="374.97,173.68 -29.34,114.61 -25.92,107.76 "/>
     <polygon id="_11" class="fil11" points="374.97,173.68 -26.6,109.13 -22.88,102.33 "/>
     <polygon id="_12" class="fil12" points="374.97,173.68 -23.62,103.69 -19.6,96.94 "/>
     <polygon id="_13" class="fil13" points="374.97,173.68 -20.4,98.29 -16.08,91.59 "/>
     <polygon id="_14" class="fil14" points="374.97,173.68 -16.95,92.93 -12.33,86.3 "/>
     <polygon id="_15" class="fil15" points="374.97,173.68 -13.25,87.63 -8.34,81.06 "/>
     <polygon id="_16" class="fil16" points="374.97,173.68 -9.33,82.37 -4.13,75.87 "/>
     <polygon id="_17" class="fil17" points="374.97,173.68 -5.17,77.17 0.32,70.74 "/>
     <polygon id="_18" class="fil18" points="374.97,173.68 -0.78,72.03 4.99,65.68 "/>
     <polygon id="_19" class="fil19" points="374.97,173.68 3.83,66.95 9.88,60.68 "/>
     <polygon id="_20" class="fil20" points="374.97,173.68 8.67,61.93 14.99,55.75 "/>
     <polygon id="_21" class="fil21" points="374.97,173.68 13.73,56.98 20.32,50.88 "/>
     <polygon id="_22" class="fil22" points="374.97,173.68 19,52.1 25.87,46.1 "/>
     <polygon id="_23" class="fil23" points="374.97,173.68 24.5,47.3 31.62,41.39 "/>
     <polygon id="_24" class="fil24" points="374.97,173.68 30.2,42.57 37.58,36.76 "/>
     <polygon id="_25" class="fil24" points="374.97,173.68 36.11,37.92 43.75,32.21 "/>
     <polygon id="_26" class="fil25" points="374.97,173.68 42.22,33.35 50.11,27.75 "/>
     <polygon id="_27" class="fil26" points="374.97,173.68 48.53,28.87 56.67,23.37 "/>
     <polygon id="_28" class="fil27" points="374.97,173.68 55.04,24.47 63.42,19.09 "/>
     <polygon id="_29" class="fil28" points="374.97,173.68 61.74,20.16 70.36,14.89 "/>
     <polygon id="_30" class="fil29" points="374.97,173.68 68.64,15.95 77.48,10.8 "/>
     <polygon id="_31" class="fil29" points="374.97,173.68 75.71,11.83 84.78,6.8 "/>
     <polygon id="_32" class="fil30" points="374.97,173.68 82.97,7.81 92.26,2.9 "/>
     <polygon id="_33" class="fil31" points="374.97,173.68 90.4,3.88 99.9,-0.89 "/>
     <polygon id="_34" class="fil32" points="374.97,173.68 98,0.06 107.72,-4.58 "/>
     <polygon id="_35" class="fil33" points="374.97,173.68 105.77,-3.65 115.69,-8.16 "/>
     <polygon id="_36" class="fil34" points="374.97,173.68 113.71,-7.26 123.82,-11.63 "/>
     <polygon id="_37" class="fil34" points="374.97,173.68 121.8,-10.76 132.1,-14.99 "/>
     <polygon id="_38" class="fil35" points="374.97,173.68 130.04,-14.15 140.53,-18.24 "/>
     <polygon id="_39" class="fil36" points="374.97,173.68 138.43,-17.42 149.1,-21.37 "/>
     <polygon id="_40" class="fil37" points="374.97,173.68 146.96,-20.58 157.8,-24.39 "/>
     <polygon id="_41" class="fil38" points="374.97,173.68 155.63,-23.62 166.63,-27.28 "/>
     <polygon id="_42" class="fil39" points="374.97,173.68 164.43,-26.55 175.59,-30.05 "/>
     <polygon id="_43" class="fil40" points="374.97,173.68 173.36,-29.35 184.68,-32.7 "/>
     <polygon id="_44" class="fil41" points="374.97,173.68 182.41,-32.03 193.87,-35.23 "/>
     <polygon id="_45" class="fil42" points="374.97,173.68 191.58,-34.59 203.17,-37.63 "/>
     <polygon id="_46" class="fil43" points="374.97,173.68 200.86,-37.02 212.58,-39.9 "/>
     <polygon id="_47" class="fil44" points="374.97,173.68 210.24,-39.33 222.09,-42.05 "/>
     <polygon id="_48" class="fil45" points="374.97,173.68 219.72,-41.5 231.69,-44.06 "/>
     <polygon id="_49" class="fil46" points="374.97,173.68 229.29,-43.55 241.37,-45.95 "/>
     <polygon id="_50" class="fil47" points="374.97,173.68 238.95,-45.47 251.13,-47.7 "/>
     <polygon id="_51" class="fil48" points="374.97,173.68 248.7,-47.25 260.97,-49.32 "/>
     <polygon id="_52" class="fil49" points="374.97,173.68 258.52,-48.9 270.88,-50.8 "/>
     <polygon id="_53" class="fil50" points="374.97,173.68 268.41,-50.42 280.85,-52.15 "/>
     <polygon id="_54" class="fil51" points="374.97,173.68 278.36,-51.8 290.88,-53.36 "/>
     <polygon id="_55" class="fil52" points="374.97,173.68 288.38,-53.05 300.96,-54.44 "/>
     <polygon id="_56" class="fil53" points="374.97,173.68 298.44,-54.16 311.08,-55.37 "/>
     <polygon id="_57" class="fil54" points="374.97,173.68 308.55,-55.13 321.24,-56.17 "/>
     <polygon id="_58" class="fil55" points="374.97,173.68 318.7,-55.97 331.43,-56.84 "/>
     <polygon id="_59" class="fil56" points="374.97,173.68 328.89,-56.66 341.65,-57.36 "/>
     <polygon id="_60" class="fil56" points="374.97,173.68 339.1,-57.22 351.89,-57.74 "/>
     <polygon id="_61" class="fil57" points="374.97,173.68 349.33,-57.64 362.15,-57.99 "/>
     <polygon id="_62" class="fil58" points="374.97,173.68 359.58,-57.92 372.41,-58.09 "/>
     <polygon id="_63" class="fil59" points="374.97,173.68 369.84,-58.06 382.67,-58.06 "/>
     <polygon id="_64" class="fil59" points="374.97,173.68 380.1,-58.06 392.93,-57.88 "/>
     <polygon id="_65" class="fil60" points="374.97,173.68 390.36,-57.92 403.17,-57.57 "/>
     <polygon id="_66" class="fil61" points="374.97,173.68 400.61,-57.64 413.4,-57.11 "/>
     <polygon id="_67" class="fil62" points="374.97,173.68 410.85,-57.22 423.61,-56.52 "/>
     <polygon id="_68" class="fil63" points="374.97,173.68 421.06,-56.66 433.79,-55.79 "/>
     <polygon id="_69" class="fil64" points="374.97,173.68 431.24,-55.97 443.93,-54.92 "/>
     <polygon id="_70" class="fil65" points="374.97,173.68 441.39,-55.13 454.03,-53.92 "/>
     <polygon id="_71" class="fil66" points="374.97,173.68 451.5,-54.16 464.09,-52.77 "/>
     <polygon id="_72" class="fil67" points="374.97,173.68 461.57,-53.05 474.09,-51.49 "/>
     <polygon id="_73" class="fil68" points="374.97,173.68 471.58,-51.8 484.03,-50.08 "/>
     <polygon id="_74" class="fil68" points="374.97,173.68 481.54,-50.42 493.9,-48.52 "/>
     <polygon id="_75" class="fil69" points="374.97,173.68 491.43,-48.9 503.7,-46.84 "/>
     <polygon id="_76" class="fil70" points="374.97,173.68 501.25,-47.25 513.43,-45.02 "/>
     <polygon id="_77" class="fil71" points="374.97,173.68 510.99,-45.47 523.07,-43.07 "/>
     <polygon id="_78" class="fil72" points="374.97,173.68 520.65,-43.55 532.62,-40.99 "/>
     <polygon id="_79" class="fil73" points="374.97,173.68 530.23,-41.5 542.08,-38.78 "/>
     <polygon id="_80" class="fil74" points="374.97,173.68 539.71,-39.33 551.43,-36.45 "/>
     <polygon id="_81" class="fil75" points="374.97,173.68 549.09,-37.02 560.69,-33.98 "/>
     <polygon id="_82" class="fil76" points="374.97,173.68 558.37,-34.59 569.82,-31.39 "/>
     <polygon id="_83" class="fil77" points="374.97,173.68 567.53,-32.03 578.84,-28.68 "/>
     <polygon id="_84" class="fil78" points="374.97,173.68 576.58,-29.35 587.74,-25.85 "/>
     <polygon id="_85" class="fil79" points="374.97,173.68 585.51,-26.55 596.51,-22.89 "/>
     <polygon id="_86" class="fil80" points="374.97,173.68 594.31,-23.62 605.15,-19.82 "/>
     <polygon id="_87" class="fil81" points="374.97,173.68 602.98,-20.58 613.65,-16.63 "/>
     <polygon id="_88" class="fil82" points="374.97,173.68 611.51,-17.42 622,-13.33 "/>
     <polygon id="_89" class="fil82" points="374.97,173.68 619.9,-14.15 630.21,-9.91 "/>
     <polygon id="_90" class="fil83" points="374.97,173.68 628.15,-10.76 638.26,-6.38 "/>
     <polygon id="_91" class="fil84" points="374.97,173.68 636.24,-7.26 646.15,-2.75 "/>
     <polygon id="_92" class="fil85" points="374.97,173.68 644.17,-3.65 653.88,0.99 "/>
     <polygon id="_93" class="fil86" points="374.97,173.68 651.94,0.06 661.45,4.84 "/>
     <polygon id="_94" class="fil87" points="374.97,173.68 659.54,3.88 668.83,8.79 "/>
     <polygon id="_95" class="fil88" points="374.97,173.68 666.98,7.81 676.05,12.83 "/>
     <polygon id="_96" class="fil89" points="374.97,173.68 674.23,11.83 683.08,16.98 "/>
     <polygon id="_97" class="fil90" points="374.97,173.68 681.31,15.95 689.92,21.22 "/>
     <polygon id="_98" class="fil91" points="374.97,173.68 688.2,20.16 696.58,25.55 "/>
     <polygon id="_99" class="fil92" points="374.97,173.68 694.9,24.47 703.04,29.97 "/>
     <polygon id="_100" class="fil93" points="374.97,173.68 701.41,28.87 709.3,34.47 "/>
     <polygon id="_101" class="fil94" points="374.97,173.68 707.73,33.35 715.37,39.06 "/>
     <polygon id="_102" class="fil95" points="374.97,173.68 713.84,37.92 721.23,43.73 "/>
     <polygon id="_103" class="fil95" points="374.97,173.68 719.75,42.57 726.87,48.48 "/>
     <polygon id="_104" class="fil96" points="374.97,173.68 725.45,47.3 732.31,53.31 "/>
     <polygon id="_105" class="fil97" points="374.97,173.68 730.94,52.1 737.53,58.2 "/>
     <polygon id="_106" class="fil98" points="374.97,173.68 736.21,56.98 742.54,63.17 "/>
     <polygon id="_107" class="fil99" points="374.97,173.68 741.27,61.93 747.32,68.2 "/>
     <polygon id="_108" class="fil100" points="374.97,173.68 746.11,66.95 751.88,73.3 "/>
     <polygon id="_109" class="fil101" points="374.97,173.68 750.72,72.03 756.21,78.46 "/>
     <polygon id="_110" class="fil102" points="374.97,173.68 755.11,77.17 760.31,83.67 "/>
     <polygon id="_111" class="fil103" points="374.97,173.68 759.27,82.37 764.18,88.94 "/>
     <polygon id="_112" class="fil104" points="374.97,173.68 763.2,87.63 767.81,94.26 "/>
     <polygon id="_113" class="fil105" points="374.97,173.68 766.89,92.93 771.21,99.63 "/>
     <polygon id="_114" class="fil106" points="374.97,173.68 770.35,98.29 774.37,105.04 "/>
     <polygon id="_115" class="fil107" points="374.97,173.68 773.57,103.69 777.29,110.49 "/>
     <polygon id="_116" class="fil108" points="374.97,173.68 776.55,109.13 779.97,115.99 "/>
     <polygon id="_117" class="fil109" points="374.97,173.68 779.28,114.61 782.4,121.51 "/>
     <polygon id="_118" class="fil110" points="374.97,173.68 781.78,120.13 784.59,127.07 "/>
     <polygon id="_119" class="fil111" points="374.97,173.68 784.02,125.68 786.53,132.66 "/>
     <polygon id="_120" class="fil112" points="374.97,173.68 786.03,131.26 788.22,138.27 "/>
     <polygon id="_121" class="fil113" points="374.97,173.68 787.78,136.86 789.66,143.9 "/>
     <polygon id="_122" class="fil113" points="374.97,173.68 789.29,142.49 790.86,149.55 "/>
     <polygon id="_123" class="fil112" points="374.97,173.68 790.54,148.14 791.8,155.21 "/>
     <polygon id="_124" class="fil111" points="374.97,173.68 791.55,153.8 792.49,160.89 "/>
     <polygon id="_125" class="fil110" points="374.97,173.68 792.3,159.47 792.93,166.57 "/>
     <polygon id="_126" class="fil109" points="374.97,173.68 792.81,165.15 793.12,172.26 "/>
     <polygon id="_127" class="fil108" points="374.97,173.68 793.06,170.84 793.06,177.95 "/>
     <polygon id="_128" class="fil107" points="374.97,173.68 793.06,176.52 792.74,183.63 "/>
     <polygon id="_129" class="fil114" points="374.97,173.68 792.81,182.21 792.18,189.31 "/>
     <polygon id="_130" class="fil106" points="374.97,173.68 792.3,187.89 791.36,194.98 "/>
     <polygon id="_131" class="fil105" points="374.97,173.68 791.55,193.56 790.29,200.64 "/>
     <polygon id="_132" class="fil103" points="374.97,173.68 790.54,199.23 788.97,206.28 "/>
     <polygon id="_133" class="fil102" points="374.97,173.68 789.29,204.87 787.4,211.9 "/>
     <polygon id="_134" class="fil115" points="374.97,173.68 787.78,210.5 785.59,217.5 "/>
     <polygon id="_135" class="fil116" points="374.97,173.68 786.03,216.1 783.52,223.07 "/>
     <polygon id="_136" class="fil99" points="374.97,173.68 784.02,221.68 781.21,228.62 "/>
     <polygon id="_137" class="fil98" points="374.97,173.68 781.78,227.23 778.66,234.13 "/>
     <polygon id="_138" class="fil117" points="374.97,173.68 779.28,232.75 775.86,239.6 "/>
     <polygon id="_139" class="fil97" points="374.97,173.68 776.55,238.23 772.82,245.03 "/>
     <polygon id="_140" class="fil96" points="374.97,173.68 773.57,243.67 769.54,250.42 "/>
     <polygon id="_141" class="fil95" points="374.97,173.68 770.35,249.07 766.03,255.77 "/>
     <polygon id="_142" class="fil95" points="374.97,173.68 766.89,254.43 762.27,261.06 "/>
     <polygon id="_143" class="fil94" points="374.97,173.68 763.2,259.74 758.29,266.3 "/>
     <polygon id="_144" class="fil93" points="374.97,173.68 759.27,264.99 754.07,271.49 "/>
     <polygon id="_145" class="fil92" points="374.97,173.68 755.11,270.19 749.63,276.62 "/>
     <polygon id="_146" class="fil92" points="374.97,173.68 750.72,275.33 744.96,281.68 "/>
     <polygon id="_147" class="fil90" points="374.97,173.68 746.11,280.41 740.06,286.68 "/>
     <polygon id="_148" class="fil89" points="374.97,173.68 741.27,285.43 734.95,291.62 "/>
     <polygon id="_149" class="fil118" points="374.97,173.68 736.21,290.38 729.62,296.48 "/>
     <polygon id="_150" class="fil88" points="374.97,173.68 730.94,295.26 724.08,301.26 "/>
     <polygon id="_151" class="fil87" points="374.97,173.68 725.45,300.06 718.32,305.97 "/>
     <polygon id="_152" class="fil86" points="374.97,173.68 719.75,304.79 712.36,310.61 "/>
     <polygon id="_153" class="fil119" points="374.97,173.68 713.84,309.44 706.2,315.15 "/>
     <polygon id="_154" class="fil84" points="374.97,173.68 707.73,314.01 699.83,319.62 "/>
     <polygon id="_155" class="fil83" points="374.97,173.68 701.41,318.49 693.27,323.99 "/>
     <polygon id="_156" class="fil82" points="374.97,173.68 694.9,322.89 686.52,328.28 "/>
     <polygon id="_157" class="fil120" points="374.97,173.68 688.2,327.2 679.58,332.47 "/>
     <polygon id="_158" class="fil81" points="374.97,173.68 681.31,331.41 672.46,336.56 "/>
     <polygon id="_159" class="fil80" points="374.97,173.68 674.23,335.53 665.16,340.56 "/>
     <polygon id="_160" class="fil79" points="374.97,173.68 666.98,339.55 657.69,344.46 "/>
     <polygon id="_161" class="fil78" points="374.97,173.68 659.54,343.48 650.04,348.25 "/>
     <polygon id="_162" class="fil77" points="374.97,173.68 651.94,347.3 642.23,351.94 "/>
     <polygon id="_163" class="fil76" points="374.97,173.68 644.17,351.01 634.25,355.52 "/>
     <polygon id="_164" class="fil75" points="374.97,173.68 636.24,354.62 626.12,358.99 "/>
     <polygon id="_165" class="fil74" points="374.97,173.68 628.15,358.12 617.84,362.35 "/>
     <polygon id="_166" class="fil74" points="374.97,173.68 619.9,361.51 609.42,365.6 "/>
     <polygon id="_167" class="fil72" points="374.97,173.68 611.51,364.78 600.85,368.73 "/>
     <polygon id="_168" class="fil71" points="374.97,173.68 602.98,367.94 592.14,371.75 "/>
     <polygon id="_169" class="fil70" points="374.97,173.68 594.31,370.99 583.31,374.64 "/>
     <polygon id="_170" class="fil70" points="374.97,173.68 585.51,373.91 574.35,377.42 "/>
     <polygon id="_171" class="fil69" points="374.97,173.68 576.58,376.71 565.27,380.07 "/>
     <polygon id="_172" class="fil68" points="374.97,173.68 567.53,379.4 556.07,382.59 "/>
     <polygon id="_173" class="fil121" points="374.97,173.68 558.37,381.95 546.77,384.99 "/>
     <polygon id="_174" class="fil67" points="374.97,173.68 549.09,384.38 537.36,387.27 "/>
     <polygon id="_175" class="fil66" points="374.97,173.68 539.71,386.69 527.86,389.41 "/>
     <polygon id="_176" class="fil65" points="374.97,173.68 530.23,388.87 518.26,391.43 "/>
     <polygon id="_177" class="fil64" points="374.97,173.68 520.65,390.91 508.57,393.31 "/>
     <polygon id="_178" class="fil63" points="374.97,173.68 510.99,392.83 498.81,395.06 "/>
     <polygon id="_179" class="fil62" points="374.97,173.68 501.25,394.61 488.97,396.68 "/>
     <polygon id="_180" class="fil61" points="374.97,173.68 491.43,396.26 479.06,398.16 "/>
     <polygon id="_181" class="fil61" points="374.97,173.68 481.54,397.78 469.09,399.51 "/>
     <polygon id="_182" class="fil60" points="374.97,173.68 471.58,399.16 459.07,400.72 "/>
     <polygon id="_183" class="fil59" points="374.97,173.68 461.57,400.41 448.99,401.8 "/>
     <polygon id="_184" class="fil122" points="374.97,173.68 451.5,401.52 438.87,402.74 "/>
     <polygon id="_185" class="fil58" points="374.97,173.68 441.39,402.49 428.7,403.54 "/>
     <polygon id="_186" class="fil57" points="374.97,173.68 431.24,403.33 418.51,404.2 "/>
     <polygon id="_187" class="fil56" points="374.97,173.68 421.06,404.02 408.29,404.72 "/>
     <polygon id="_188" class="fil55" points="374.97,173.68 410.85,404.58 398.05,405.1 "/>
     <polygon id="_189" class="fil123" points="374.97,173.68 400.61,405 387.8,405.35 "/>
     <polygon id="_190" class="fil54" points="374.97,173.68 390.36,405.28 377.54,405.45 "/>
     <polygon id="_191" class="fil53" points="374.97,173.68 380.1,405.42 367.27,405.42 "/>
     <polygon id="_192" class="fil52" points="374.97,173.68 369.84,405.42 357.02,405.24 "/>
     <polygon id="_193" class="fil52" points="374.97,173.68 359.58,405.28 346.77,404.93 "/>
     <polygon id="_194" class="fil50" points="374.97,173.68 349.33,405 336.54,404.48 "/>
     <polygon id="_195" class="fil49" points="374.97,173.68 339.1,404.58 326.33,403.88 "/>
     <polygon id="_196" class="fil48" points="374.97,173.68 328.89,404.02 316.15,403.15 "/>
     <polygon id="_197" class="fil124" points="374.97,173.68 318.7,403.33 306.01,402.28 "/>
     <polygon id="_198" class="fil125" points="374.97,173.68 308.55,402.49 295.91,401.28 "/>
     <polygon id="_199" class="fil46" points="374.97,173.68 298.44,401.52 285.86,400.13 "/>
     <polygon id="_200" class="fil44" points="374.97,173.68 288.38,400.41 275.86,398.85 "/>
     <polygon id="_201" class="fil44" points="374.97,173.68 278.36,399.16 265.92,397.44 "/>
     <polygon id="_202" class="fil43" points="374.97,173.68 268.41,397.78 256.05,395.89 "/>
     <polygon id="_203" class="fil42" points="374.97,173.68 258.52,396.26 246.24,394.2 "/>
     <polygon id="_204" class="fil41" points="374.97,173.68 248.7,394.61 236.52,392.38 "/>
     <polygon id="_205" class="fil126" points="374.97,173.68 238.95,392.83 226.88,390.43 "/>
     <polygon id="_206" class="fil127" points="374.97,173.68 229.29,390.91 217.32,388.35 "/>
     <polygon id="_207" class="fil38" points="374.97,173.68 219.72,388.87 207.87,386.15 "/>
     <polygon id="_208" class="fil37" points="374.97,173.68 210.24,386.69 198.51,383.81 "/>
     <polygon id="_209" class="fil128" points="374.97,173.68 200.86,384.38 189.26,381.34 "/>
     <polygon id="_210" class="fil36" points="374.97,173.68 191.58,381.95 180.12,378.76 "/>
     <polygon id="_211" class="fil129" points="374.97,173.68 182.41,379.4 171.1,376.04 "/>
     <polygon id="_212" class="fil34" points="374.97,173.68 173.36,376.71 162.2,373.21 "/>
     <polygon id="_213" class="fil34" points="374.97,173.68 164.43,373.91 153.43,370.25 "/>
     <polygon id="_214" class="fil33" points="374.97,173.68 155.63,370.99 144.79,367.18 "/>
     <polygon id="_215" class="fil32" points="374.97,173.68 146.96,367.94 136.3,363.99 "/>
     <polygon id="_216" class="fil31" points="374.97,173.68 138.43,364.78 127.94,360.69 "/>
     <polygon id="_217" class="fil31" points="374.97,173.68 130.04,361.51 119.74,357.27 "/>
     <polygon id="_218" class="fil130" points="374.97,173.68 121.8,358.12 111.68,353.75 "/>
     <polygon id="_219" class="fil29" points="374.97,173.68 113.71,354.62 103.79,350.11 "/>
     <polygon id="_220" class="fil28" points="374.97,173.68 105.77,351.01 96.06,346.37 "/>
     <polygon id="_221" class="fil28" points="374.97,173.68 98,347.3 88.5,342.52 "/>
     <polygon id="_222" class="fil131" points="374.97,173.68 90.4,343.48 81.11,338.57 "/>
     <polygon id="_223" class="fil26" points="374.97,173.68 82.97,339.55 73.9,334.53 "/>
     <polygon id="_224" class="fil25" points="374.97,173.68 75.71,335.53 66.87,330.38 "/>
     <polygon id="_225" class="fil132" points="374.97,173.68 68.64,331.41 60.02,326.14 "/>
     <polygon id="_226" class="fil24" points="374.97,173.68 61.74,327.2 53.37,321.81 "/>
     <polygon id="_227" class="fil23" points="374.97,173.68 55.04,322.89 46.9,317.4 "/>
     <polygon id="_228" class="fil22" points="374.97,173.68 48.53,318.49 40.64,312.89 "/>
     <polygon id="_229" class="fil133" points="374.97,173.68 42.22,314.01 34.58,308.3 "/>
     <polygon id="_230" class="fil21" points="374.97,173.68 36.11,309.44 28.72,303.63 "/>
     <polygon id="_231" class="fil19" points="374.97,173.68 30.2,304.79 23.07,298.88 "/>
     <polygon id="_232" class="fil18" points="374.97,173.68 24.5,300.06 17.63,294.06 "/>
     <polygon id="_233" class="fil18" points="374.97,173.68 19,295.26 12.41,289.16 "/>
     <polygon id="_234" class="fil17" points="374.97,173.68 13.73,290.38 7.41,284.19 "/>
     <polygon id="_235" class="fil16" points="374.97,173.68 8.67,285.43 2.62,279.16 "/>
     <polygon id="_236" class="fil15" points="374.97,173.68 3.83,280.41 -1.93,274.06 "/>
     <polygon id="_237" class="fil15" points="374.97,173.68 -0.78,275.33 -6.26,268.9 "/>
     <polygon id="_238" class="fil13" points="374.97,173.68 -5.17,270.19 -10.37,263.69 "/>
     <polygon id="_239" class="fil12" points="374.97,173.68 -9.33,264.99 -14.24,258.42 "/>
     <polygon id="_240" class="fil11" points="374.97,173.68 -13.25,259.74 -17.87,253.1 "/>
     <polygon id="_241" class="fil134" points="374.97,173.68 -16.95,254.43 -21.27,247.73 "/>
     <polygon id="_242" class="fil135" points="374.97,173.68 -20.4,249.07 -24.43,242.32 "/>
     <polygon id="_243" class="fil9" points="374.97,173.68 -23.62,243.67 -27.35,236.87 "/>
     <polygon id="_244" class="fil8" points="374.97,173.68 -26.6,238.23 -30.02,231.38 "/>
     <polygon id="_245" class="fil7" points="374.97,173.68 -29.34,232.75 -32.46,225.85 "/>
     <polygon id="_246" class="fil6" points="374.97,173.68 -31.83,227.23 -34.64,220.29 "/>
     <polygon id="_247" class="fil5" points="374.97,173.68 -34.08,221.68 -36.58,214.71 "/>
     <polygon id="_248" class="fil4" points="374.97,173.68 -36.08,216.1 -38.28,209.1 "/>
     <polygon id="_249" class="fil136" points="374.97,173.68 -37.84,210.5 -39.72,203.46 "/>
     <polygon id="_250" class="fil137" points="374.97,173.68 -39.34,204.87 -40.91,197.81 "/>
     <polygon id="_251" class="fil1" points="374.97,173.68 -40.6,199.23 -41.86,192.15 "/>
     <polygon id="_252" class="fil0" points="374.97,173.68 -41.6,193.56 -42.55,186.47 "/>
     <polygon id="_253" class="fil138" points="374.97,173.68 -42.36,187.89 -42.99,180.79 "/>
     <polygon id="_254" class="fil139" points="374.97,173.68 -42.86,182.21 -43.18,175.1 "/>
     <polygon id="_255" class="fil140" points="374.97,173.68 -43.11,176.52 -43.11,170.84 "/>
    </g>
   </g>
   <path class="fil141" d="M378.18 155.63c-13.2,30.9 -20.16,64.11 -17.51,104.26 24.1,-9.99 48.88,-31.92 56.72,-57.73 10.58,-34.84 -2.98,-74.25 -5,-110.6 -30.85,22.38 -60.11,25.8 -79.67,79.44 -10,27.42 5.78,60.11 14.34,82.6 0.15,-36.26 12.05,-67.41 31.12,-97.95z"/>
   <path class="fil141" d="M253.88 230.32c20.27,9.68 39.7,20.93 56.79,39.89 10.44,11.58 16.33,26.56 24.5,39.83l1.17 -6.13 -8.76 -12.21c-0.17,-22.73 -9.26,-49.75 -24.14,-67.95 -22.83,-27.93 -62.87,-26.43 -94.27,-30.96 7.93,32.31 -4.37,42.89 32.53,76.37 18.86,17.11 55.85,26.39 76.85,26.88 -16.08,-21.85 -38.35,-46.12 -64.68,-65.72z"/>
   <path class="fil141" d="M475.92 263.26c-20.04,7.42 -52.12,21.74 -69.21,40.7 -10.44,11.58 -20.45,28.48 -28.62,41.75l-1.7 -4.2 12.36 -16.74c0.17,-22.73 9.26,-49.75 24.14,-67.95 22.83,-27.92 82.95,-31.22 114.35,-35.76 -7.93,32.31 -3.53,48.98 -40.43,82.46l-0.17 0.15c-27.87,8.72 -55.24,17.98 -82.02,27.89 -0.33,0.01 -0.65,0.02 -0.96,0.03 11.09,-24.96 43.42,-50.31 72.27,-68.33z"/>
   <g>
    <g style="clip-path:url(#id1)">
     <polygon class="fil0" points="330.62,408.99 -114.59,407 -114.18,395.05 "/>
     <polygon id="_1_0" class="fil1" points="330.62,408.99 -114.25,397.04 -113.58,387.1 "/>
     <polygon id="_2_1" class="fil2" points="330.62,408.99 -113.72,389.09 -112.71,379.16 "/>
     <polygon id="_3_2" class="fil3" points="330.62,408.99 -112.91,381.14 -111.57,371.23 "/>
     <polygon id="_4_3" class="fil4" points="330.62,408.99 -111.84,373.22 -110.17,363.33 "/>
     <polygon id="_5_4" class="fil5" points="330.62,408.99 -110.5,365.31 -108.5,355.46 "/>
     <polygon id="_6_5" class="fil6" points="330.62,408.99 -108.9,357.43 -106.57,347.62 "/>
     <polygon id="_7_6" class="fil7" points="330.62,408.99 -107.03,349.58 -104.37,339.82 "/>
     <polygon id="_8_7" class="fil8" points="330.62,408.99 -104.9,341.77 -101.91,332.05 "/>
     <polygon id="_9_8" class="fil9" points="330.62,408.99 -102.51,334 -99.19,324.34 "/>
     <polygon id="_10_9" class="fil10" points="330.62,408.99 -99.85,326.27 -96.21,316.67 "/>
     <polygon id="_11_10" class="fil11" points="330.62,408.99 -96.94,318.59 -92.97,309.07 "/>
     <polygon id="_12_11" class="fil12" points="330.62,408.99 -93.77,310.97 -89.48,301.52 "/>
     <polygon id="_13_12" class="fil13" points="330.62,408.99 -90.34,303.41 -85.74,294.03 "/>
     <polygon id="_14_13" class="fil14" points="330.62,408.99 -86.66,295.91 -81.74,286.62 "/>
     <polygon id="_15_14" class="fil15" points="330.62,408.99 -82.73,288.48 -77.5,279.28 "/>
     <polygon id="_16_15" class="fil16" points="330.62,408.99 -78.55,281.12 -73.01,272.01 "/>
     <polygon id="_17_16" class="fil17" points="330.62,408.99 -74.12,273.83 -68.28,264.83 "/>
     <polygon id="_18_17" class="fil18" points="330.62,408.99 -69.45,266.63 -63.31,257.74 "/>
     <polygon id="_19_18" class="fil19" points="330.62,408.99 -64.53,259.52 -58.1,250.74 "/>
     <polygon id="_20_19" class="fil20" points="330.62,408.99 -59.38,252.49 -52.65,243.83 "/>
     <polygon id="_21_20" class="fil21" points="330.62,408.99 -54,245.56 -46.98,237.02 "/>
     <polygon id="_22_21" class="fil22" points="330.62,408.99 -48.38,238.73 -41.07,230.32 "/>
     <polygon id="_23_22" class="fil23" points="330.62,408.99 -42.54,232 -34.95,223.72 "/>
     <polygon id="_24_23" class="fil24" points="330.62,408.99 -36.47,225.38 -28.6,217.24 "/>
     <polygon id="_25_24" class="fil24" points="330.62,408.99 -30.17,218.87 -22.04,210.87 "/>
     <polygon id="_26_25" class="fil25" points="330.62,408.99 -23.67,212.47 -15.26,204.62 "/>
     <polygon id="_27_26" class="fil26" points="330.62,408.99 -16.94,206.19 -8.28,198.49 "/>
     <polygon id="_28_27" class="fil27" points="330.62,408.99 -10.01,200.03 -1.09,192.49 "/>
     <polygon id="_29_28" class="fil28" points="330.62,408.99 -2.88,194 6.3,186.62 "/>
     <polygon id="_30_29" class="fil29" points="330.62,408.99 4.46,188.1 13.88,180.88 "/>
     <polygon id="_31_30" class="fil29" points="330.62,408.99 11.99,182.33 21.65,175.29 "/>
     <polygon id="_32_31" class="fil30" points="330.62,408.99 19.72,176.69 29.61,169.83 "/>
     <polygon id="_33_32" class="fil31" points="330.62,408.99 27.63,171.2 37.75,164.52 "/>
     <polygon id="_34_33" class="fil32" points="330.62,408.99 35.73,165.85 46.07,159.35 "/>
     <polygon id="_35_34" class="fil33" points="330.62,408.99 44,160.65 54.56,154.33 "/>
     <polygon id="_36_35" class="fil34" points="330.62,408.99 52.45,155.6 63.21,149.47 "/>
     <polygon id="_37_36" class="fil34" points="330.62,408.99 61.06,150.7 72.03,144.76 "/>
     <polygon id="_38_37" class="fil35" points="330.62,408.99 69.84,145.95 81,140.22 "/>
     <polygon id="_39_38" class="fil36" points="330.62,408.99 78.77,141.36 90.13,135.83 "/>
     <polygon id="_40_39" class="fil37" points="330.62,408.99 87.85,136.94 99.39,131.61 "/>
     <polygon id="_41_40" class="fil38" points="330.62,408.99 97.08,132.68 108.8,127.56 "/>
     <polygon id="_42_41" class="fil39" points="330.62,408.99 106.46,128.58 118.34,123.67 "/>
     <polygon id="_43_42" class="fil40" points="330.62,408.99 115.96,124.66 128.01,119.96 "/>
     <polygon id="_44_43" class="fil41" points="330.62,408.99 125.6,120.9 137.8,116.42 "/>
     <polygon id="_45_44" class="fil42" points="330.62,408.99 135.36,117.32 147.7,113.06 "/>
     <polygon id="_46_45" class="fil43" points="330.62,408.99 145.23,113.91 157.72,109.88 "/>
     <polygon id="_47_46" class="fil44" points="330.62,408.99 155.22,110.69 167.84,106.88 "/>
     <polygon id="_48_47" class="fil45" points="330.62,408.99 165.32,107.64 178.06,104.05 "/>
     <polygon id="_49_48" class="fil46" points="330.62,408.99 175.51,104.77 188.37,101.42 "/>
     <polygon id="_50_49" class="fil47" points="330.62,408.99 185.8,102.09 198.77,98.96 "/>
     <polygon id="_51_50" class="fil48" points="330.62,408.99 196.17,99.59 209.24,96.7 "/>
     <polygon id="_52_51" class="fil49" points="330.62,408.99 206.63,97.28 219.79,94.62 "/>
     <polygon id="_53_52" class="fil50" points="330.62,408.99 217.16,95.15 230.41,92.73 "/>
     <polygon id="_54_53" class="fil51" points="330.62,408.99 227.76,93.22 241.08,91.03 "/>
     <polygon id="_55_54" class="fil52" points="330.62,408.99 238.42,91.47 251.81,89.53 "/>
     <polygon id="_56_55" class="fil53" points="330.62,408.99 249.13,89.92 262.59,88.21 "/>
     <polygon id="_57_56" class="fil54" points="330.62,408.99 259.9,88.55 273.41,87.09 "/>
     <polygon id="_58_57" class="fil55" points="330.62,408.99 270.7,87.39 284.26,86.17 "/>
     <polygon id="_59_58" class="fil56" points="330.62,408.99 281.55,86.41 295.14,85.44 "/>
     <polygon id="_60_59" class="fil56" points="330.62,408.99 292.42,85.63 306.04,84.9 "/>
     <polygon id="_61_60" class="fil57" points="330.62,408.99 303.32,85.04 316.96,84.56 "/>
     <polygon id="_62_61" class="fil58" points="330.62,408.99 314.23,84.65 327.88,84.41 "/>
     <polygon id="_63_62" class="fil59" points="330.62,408.99 325.15,84.46 338.81,84.46 "/>
     <polygon id="_64_63" class="fil59" points="330.62,408.99 336.08,84.46 349.73,84.7 "/>
     <polygon id="_65_64" class="fil60" points="330.62,408.99 347,84.65 360.64,85.14 "/>
     <polygon id="_66_65" class="fil61" points="330.62,408.99 357.91,85.04 371.53,85.78 "/>
     <polygon id="_67_66" class="fil62" points="330.62,408.99 368.81,85.63 382.4,86.61 "/>
     <polygon id="_68_67" class="fil63" points="330.62,408.99 379.68,86.41 393.24,87.63 "/>
     <polygon id="_69_68" class="fil64" points="330.62,408.99 390.53,87.39 404.04,88.85 "/>
     <polygon id="_70_69" class="fil65" points="330.62,408.99 401.33,88.55 414.79,90.26 "/>
     <polygon id="_71_70" class="fil66" points="330.62,408.99 412.1,89.92 425.5,91.86 "/>
     <polygon id="_72_71" class="fil67" points="330.62,408.99 422.82,91.47 436.14,93.65 "/>
     <polygon id="_73_72" class="fil68" points="330.62,408.99 433.48,93.22 446.72,95.64 "/>
     <polygon id="_74_73" class="fil68" points="330.62,408.99 444.07,95.15 457.24,97.81 "/>
     <polygon id="_75_74" class="fil69" points="330.62,408.99 454.6,97.28 467.67,100.17 "/>
     <polygon id="_76_75" class="fil70" points="330.62,408.99 465.06,99.59 478.03,102.71 "/>
     <polygon id="_77_76" class="fil71" points="330.62,408.99 475.43,102.09 488.29,105.44 "/>
     <polygon id="_78_77" class="fil72" points="330.62,408.99 485.72,104.77 498.46,108.35 "/>
     <polygon id="_79_78" class="fil73" points="330.62,408.99 495.92,107.64 508.53,111.45 "/>
     <polygon id="_80_79" class="fil74" points="330.62,408.99 506.01,110.69 518.5,114.72 "/>
     <polygon id="_81_80" class="fil75" points="330.62,408.99 516,113.91 528.34,118.17 "/>
     <polygon id="_82_81" class="fil76" points="330.62,408.99 525.87,117.32 538.07,121.8 "/>
     <polygon id="_83_82" class="fil77" points="330.62,408.99 535.63,120.9 547.68,125.59 "/>
     <polygon id="_84_83" class="fil78" points="330.62,408.99 545.27,124.66 557.15,129.56 "/>
     <polygon id="_85_84" class="fil79" points="330.62,408.99 554.78,128.58 566.49,133.7 "/>
     <polygon id="_86_85" class="fil80" points="330.62,408.99 564.15,132.68 575.69,138 "/>
     <polygon id="_87_86" class="fil81" points="330.62,408.99 573.38,136.94 584.73,142.47 "/>
     <polygon id="_88_87" class="fil82" points="330.62,408.99 582.46,141.36 593.63,147.1 "/>
     <polygon id="_89_88" class="fil82" points="330.62,408.99 591.39,145.95 602.37,151.88 "/>
     <polygon id="_90_89" class="fil83" points="330.62,408.99 600.17,150.7 610.94,156.82 "/>
     <polygon id="_91_90" class="fil84" points="330.62,408.99 608.78,155.6 619.34,161.91 "/>
     <polygon id="_92_91" class="fil85" points="330.62,408.99 617.23,160.65 627.57,167.15 "/>
     <polygon id="_93_92" class="fil86" points="330.62,408.99 625.5,165.85 635.62,172.54 "/>
     <polygon id="_94_93" class="fil87" points="330.62,408.99 633.6,171.2 643.49,178.07 "/>
     <polygon id="_95_94" class="fil88" points="330.62,408.99 641.51,176.69 651.17,183.74 "/>
     <polygon id="_96_95" class="fil89" points="330.62,408.99 649.24,182.33 658.65,189.54 "/>
     <polygon id="_97_96" class="fil90" points="330.62,408.99 656.77,188.1 665.94,195.47 "/>
     <polygon id="_98_97" class="fil91" points="330.62,408.99 664.11,194 673.03,201.54 "/>
     <polygon id="_99_98" class="fil92" points="330.62,408.99 671.24,200.03 679.91,207.73 "/>
     <polygon id="_100_99" class="fil93" points="330.62,408.99 678.18,206.19 686.58,214.04 "/>
     <polygon id="_101_100" class="fil94" points="330.62,408.99 684.9,212.47 693.03,220.47 "/>
     <polygon id="_102_101" class="fil95" points="330.62,408.99 691.41,218.87 699.27,227.01 "/>
     <polygon id="_103_102" class="fil95" points="330.62,408.99 697.7,225.38 705.29,233.66 "/>
     <polygon id="_104_103" class="fil96" points="330.62,408.99 703.77,232 711.07,240.41 "/>
     <polygon id="_105_104" class="fil97" points="330.62,408.99 709.61,238.73 716.63,247.27 "/>
     <polygon id="_106_105" class="fil98" points="330.62,408.99 715.23,245.56 721.96,254.23 "/>
     <polygon id="_107_106" class="fil99" points="330.62,408.99 720.62,252.49 727.05,261.28 "/>
     <polygon id="_108_107" class="fil100" points="330.62,408.99 725.77,259.52 731.91,268.41 "/>
     <polygon id="_109_108" class="fil101" points="330.62,408.99 730.68,266.63 736.52,275.64 "/>
     <polygon id="_110_109" class="fil102" points="330.62,408.99 735.35,273.83 740.88,282.94 "/>
     <polygon id="_111_110" class="fil103" points="330.62,408.99 739.78,281.12 745,290.32 "/>
     <polygon id="_112_111" class="fil104" points="330.62,408.99 743.96,288.48 748.87,297.77 "/>
     <polygon id="_113_112" class="fil105" points="330.62,408.99 747.89,295.91 752.49,305.28 "/>
     <polygon id="_114_113" class="fil106" points="330.62,408.99 751.57,303.41 755.86,312.86 "/>
     <polygon id="_115_114" class="fil107" points="330.62,408.99 755,310.97 758.96,320.5 "/>
     <polygon id="_116_115" class="fil108" points="330.62,408.99 758.17,318.59 761.81,328.19 "/>
     <polygon id="_117_116" class="fil109" points="330.62,408.99 761.08,326.27 764.4,335.93 "/>
     <polygon id="_118_117" class="fil110" points="330.62,408.99 763.74,334 766.73,343.71 "/>
     <polygon id="_119_118" class="fil111" points="330.62,408.99 766.13,341.77 768.8,351.54 "/>
     <polygon id="_120_119" class="fil112" points="330.62,408.99 768.26,349.58 770.6,359.39 "/>
     <polygon id="_121_120" class="fil113" points="330.62,408.99 770.13,357.43 772.14,367.28 "/>
     <polygon id="_122_121" class="fil113" points="330.62,408.99 771.74,365.31 773.41,375.19 "/>
     <polygon id="_123_122" class="fil112" points="330.62,408.99 773.07,373.22 774.41,383.13 "/>
     <polygon id="_124_123" class="fil111" points="330.62,408.99 774.14,381.14 775.15,391.07 "/>
     <polygon id="_125_124" class="fil110" points="330.62,408.99 774.95,389.09 775.62,399.03 "/>
     <polygon id="_126_125" class="fil109" points="330.62,408.99 775.48,397.04 775.82,407 "/>
     <polygon id="_127_126" class="fil108" points="330.62,408.99 775.75,405.01 775.75,414.96 "/>
     <polygon id="_128_127" class="fil107" points="330.62,408.99 775.75,412.97 775.42,422.93 "/>
     <polygon id="_129_128" class="fil114" points="330.62,408.99 775.48,420.94 774.81,430.88 "/>
     <polygon id="_130_129" class="fil106" points="330.62,408.99 774.95,428.89 773.94,438.82 "/>
     <polygon id="_131_130" class="fil105" points="330.62,408.99 774.14,436.84 772.8,446.75 "/>
     <polygon id="_132_131" class="fil103" points="330.62,408.99 773.07,444.76 771.4,454.65 "/>
     <polygon id="_133_132" class="fil102" points="330.62,408.99 771.74,452.67 769.73,462.52 "/>
     <polygon id="_134_133" class="fil115" points="330.62,408.99 770.13,460.55 767.8,470.36 "/>
     <polygon id="_135_134" class="fil116" points="330.62,408.99 768.26,468.4 765.6,478.16 "/>
     <polygon id="_136_135" class="fil99" points="330.62,408.99 766.13,476.21 763.14,485.92 "/>
     <polygon id="_137_136" class="fil98" points="330.62,408.99 763.74,483.98 760.42,493.64 "/>
     <polygon id="_138_137" class="fil117" points="330.62,408.99 761.08,491.71 757.44,501.3 "/>
     <polygon id="_139_138" class="fil97" points="330.62,408.99 758.17,499.38 754.21,508.91 "/>
     <polygon id="_140_139" class="fil96" points="330.62,408.99 755,507.01 750.71,516.46 "/>
     <polygon id="_141_140" class="fil95" points="330.62,408.99 751.57,514.57 746.97,523.95 "/>
     <polygon id="_142_141" class="fil95" points="330.62,408.99 747.89,522.07 742.98,531.36 "/>
     <polygon id="_143_142" class="fil94" points="330.62,408.99 743.96,529.5 738.73,538.7 "/>
     <polygon id="_144_143" class="fil93" points="330.62,408.99 739.78,536.86 734.24,545.97 "/>
     <polygon id="_145_144" class="fil92" points="330.62,408.99 735.35,544.14 729.51,553.15 "/>
     <polygon id="_146_145" class="fil92" points="330.62,408.99 730.68,551.35 724.54,560.24 "/>
     <polygon id="_147_146" class="fil90" points="330.62,408.99 725.77,558.46 719.33,567.24 "/>
     <polygon id="_148_147" class="fil89" points="330.62,408.99 720.62,565.49 713.88,574.15 "/>
     <polygon id="_149_148" class="fil118" points="330.62,408.99 715.23,572.42 708.21,580.96 "/>
     <polygon id="_150_149" class="fil88" points="330.62,408.99 709.61,579.25 702.31,587.66 "/>
     <polygon id="_151_150" class="fil87" points="330.62,408.99 703.77,585.98 696.18,594.26 "/>
     <polygon id="_152_151" class="fil86" points="330.62,408.99 697.7,592.6 689.83,600.74 "/>
     <polygon id="_153_152" class="fil119" points="330.62,408.99 691.41,599.11 683.27,607.11 "/>
     <polygon id="_154_153" class="fil84" points="330.62,408.99 684.9,605.51 676.5,613.36 "/>
     <polygon id="_155_154" class="fil83" points="330.62,408.99 678.18,611.79 669.51,619.49 "/>
     <polygon id="_156_155" class="fil82" points="330.62,408.99 671.24,617.95 662.32,625.49 "/>
     <polygon id="_157_156" class="fil120" points="330.62,408.99 664.11,623.98 654.94,631.36 "/>
     <polygon id="_158_157" class="fil81" points="330.62,408.99 656.77,629.88 647.35,637.09 "/>
     <polygon id="_159_158" class="fil80" points="330.62,408.99 649.24,635.65 639.58,642.69 "/>
     <polygon id="_160_159" class="fil79" points="330.62,408.99 641.51,641.28 631.62,648.15 "/>
     <polygon id="_161_160" class="fil78" points="330.62,408.99 633.6,646.78 623.48,653.46 "/>
     <polygon id="_162_161" class="fil77" points="330.62,408.99 625.5,652.13 615.16,658.63 "/>
     <polygon id="_163_162" class="fil76" points="330.62,408.99 617.23,657.33 606.67,663.65 "/>
     <polygon id="_164_163" class="fil75" points="330.62,408.99 608.78,662.38 598.02,668.51 "/>
     <polygon id="_165_164" class="fil74" points="330.62,408.99 600.17,667.28 589.2,673.21 "/>
     <polygon id="_166_165" class="fil74" points="330.62,408.99 591.39,672.03 580.23,677.76 "/>
     <polygon id="_167_166" class="fil72" points="330.62,408.99 582.46,676.61 571.11,682.15 "/>
     <polygon id="_168_167" class="fil71" points="330.62,408.99 573.38,681.04 561.84,686.37 "/>
     <polygon id="_169_168" class="fil70" points="330.62,408.99 564.15,685.3 552.43,690.42 "/>
     <polygon id="_170_169" class="fil70" points="330.62,408.99 554.78,689.4 542.89,694.31 "/>
     <polygon id="_171_170" class="fil69" points="330.62,408.99 545.27,693.32 533.22,698.02 "/>
     <polygon id="_172_171" class="fil68" points="330.62,408.99 535.63,697.08 523.43,701.56 "/>
     <polygon id="_173_172" class="fil121" points="330.62,408.99 525.87,700.66 513.53,704.92 "/>
     <polygon id="_174_173" class="fil67" points="330.62,408.99 516,704.07 503.51,708.1 "/>
     <polygon id="_175_174" class="fil66" points="330.62,408.99 506.01,707.29 493.39,711.1 "/>
     <polygon id="_176_175" class="fil65" points="330.62,408.99 495.92,710.34 483.17,713.93 "/>
     <polygon id="_177_176" class="fil64" points="330.62,408.99 485.72,713.21 472.86,716.56 "/>
     <polygon id="_178_177" class="fil63" points="330.62,408.99 475.43,715.89 462.47,719.02 "/>
     <polygon id="_179_178" class="fil62" points="330.62,408.99 465.06,718.39 451.99,721.28 "/>
     <polygon id="_180_179" class="fil61" points="330.62,408.99 454.6,720.7 441.44,723.36 "/>
     <polygon id="_181_180" class="fil61" points="330.62,408.99 444.07,722.83 430.83,725.25 "/>
     <polygon id="_182_181" class="fil60" points="330.62,408.99 433.48,724.76 420.15,726.94 "/>
     <polygon id="_183_182" class="fil59" points="330.62,408.99 422.82,726.51 409.42,728.45 "/>
     <polygon id="_184_183" class="fil122" points="330.62,408.99 412.1,728.06 398.64,729.76 "/>
     <polygon id="_185_184" class="fil58" points="330.62,408.99 401.33,729.42 387.82,730.88 "/>
     <polygon id="_186_185" class="fil57" points="330.62,408.99 390.53,730.59 376.97,731.81 "/>
     <polygon id="_187_186" class="fil56" points="330.62,408.99 379.68,731.57 366.09,732.54 "/>
     <polygon id="_188_187" class="fil55" points="330.62,408.99 368.81,732.35 355.19,733.08 "/>
     <polygon id="_189_188" class="fil123" points="330.62,408.99 357.91,732.93 344.27,733.42 "/>
     <polygon id="_190_189" class="fil54" points="330.62,408.99 347,733.33 333.35,733.57 "/>
     <polygon id="_191_190" class="fil53" points="330.62,408.99 336.08,733.52 322.42,733.52 "/>
     <polygon id="_192_191" class="fil52" points="330.62,408.99 325.15,733.52 311.5,733.28 "/>
     <polygon id="_193_192" class="fil52" points="330.62,408.99 314.23,733.33 300.59,732.84 "/>
     <polygon id="_194_193" class="fil50" points="330.62,408.99 303.32,732.93 289.7,732.2 "/>
     <polygon id="_195_194" class="fil49" points="330.62,408.99 292.42,732.35 278.83,731.37 "/>
     <polygon id="_196_195" class="fil48" points="330.62,408.99 281.55,731.57 267.99,730.35 "/>
     <polygon id="_197_196" class="fil124" points="330.62,408.99 270.7,730.59 257.19,729.13 "/>
     <polygon id="_198_197" class="fil125" points="330.62,408.99 259.9,729.42 246.44,727.72 "/>
     <polygon id="_199_198" class="fil46" points="330.62,408.99 249.13,728.06 235.74,726.12 "/>
     <polygon id="_200_199" class="fil44" points="330.62,408.99 238.42,726.51 225.09,724.33 "/>
     <polygon id="_201_200" class="fil44" points="330.62,408.99 227.76,724.76 214.51,722.34 "/>
     <polygon id="_202_201" class="fil43" points="330.62,408.99 217.16,722.83 203.99,720.17 "/>
     <polygon id="_203_202" class="fil42" points="330.62,408.99 206.63,720.7 193.56,717.81 "/>
     <polygon id="_204_203" class="fil41" points="330.62,408.99 196.17,718.39 183.2,715.27 "/>
     <polygon id="_205_204" class="fil126" points="330.62,408.99 185.8,715.89 172.94,712.54 "/>
     <polygon id="_206_205" class="fil127" points="330.62,408.99 175.51,713.21 162.77,709.62 "/>
     <polygon id="_207_206" class="fil38" points="330.62,408.99 165.32,710.34 152.7,706.53 "/>
     <polygon id="_208_207" class="fil37" points="330.62,408.99 155.22,707.29 142.74,703.26 "/>
     <polygon id="_209_208" class="fil128" points="330.62,408.99 145.23,704.07 132.89,699.81 "/>
     <polygon id="_210_209" class="fil36" points="330.62,408.99 135.36,700.66 123.16,696.18 "/>
     <polygon id="_211_210" class="fil129" points="330.62,408.99 125.6,697.08 113.55,692.38 "/>
     <polygon id="_212_211" class="fil34" points="330.62,408.99 115.96,693.32 104.08,688.42 "/>
     <polygon id="_213_212" class="fil34" points="330.62,408.99 106.46,689.4 94.74,684.28 "/>
     <polygon id="_214_213" class="fil33" points="330.62,408.99 97.08,685.3 85.55,679.97 "/>
     <polygon id="_215_214" class="fil32" points="330.62,408.99 87.85,681.04 76.5,675.51 "/>
     <polygon id="_216_215" class="fil31" points="330.62,408.99 78.77,676.61 67.6,670.88 "/>
     <polygon id="_217_216" class="fil31" points="330.62,408.99 69.84,672.03 58.87,666.1 "/>
     <polygon id="_218_217" class="fil130" points="330.62,408.99 61.06,667.28 50.29,661.16 "/>
     <polygon id="_219_218" class="fil29" points="330.62,408.99 52.45,662.38 41.89,656.07 "/>
     <polygon id="_220_219" class="fil28" points="330.62,408.99 44,657.33 33.66,650.83 "/>
     <polygon id="_221_220" class="fil28" points="330.62,408.99 35.73,652.13 25.61,645.44 "/>
     <polygon id="_222_221" class="fil131" points="330.62,408.99 27.63,646.78 17.74,639.91 "/>
     <polygon id="_223_222" class="fil26" points="330.62,408.99 19.72,641.28 10.06,634.24 "/>
     <polygon id="_224_223" class="fil25" points="330.62,408.99 11.99,635.65 2.58,628.44 "/>
     <polygon id="_225_224" class="fil132" points="330.62,408.99 4.46,629.88 -4.71,622.5 "/>
     <polygon id="_226_225" class="fil24" points="330.62,408.99 -2.88,623.98 -11.8,616.44 "/>
     <polygon id="_227_226" class="fil23" points="330.62,408.99 -10.01,617.95 -18.68,610.25 "/>
     <polygon id="_228_227" class="fil22" points="330.62,408.99 -16.94,611.79 -25.35,603.94 "/>
     <polygon id="_229_228" class="fil133" points="330.62,408.99 -23.67,605.51 -31.8,597.51 "/>
     <polygon id="_230_229" class="fil21" points="330.62,408.99 -30.17,599.11 -38.04,590.97 "/>
     <polygon id="_231_230" class="fil19" points="330.62,408.99 -36.47,592.6 -44.05,584.32 "/>
     <polygon id="_232_231" class="fil18" points="330.62,408.99 -42.54,585.98 -49.84,577.57 "/>
     <polygon id="_233_232" class="fil18" points="330.62,408.99 -48.38,579.25 -55.4,570.71 "/>
     <polygon id="_234_233" class="fil17" points="330.62,408.99 -54,572.42 -60.73,563.75 "/>
     <polygon id="_235_234" class="fil16" points="330.62,408.99 -59.38,565.49 -65.82,556.7 "/>
     <polygon id="_236_235" class="fil15" points="330.62,408.99 -64.53,558.46 -70.67,549.57 "/>
     <polygon id="_237_236" class="fil15" points="330.62,408.99 -69.45,551.35 -75.29,542.34 "/>
     <polygon id="_238_237" class="fil13" points="330.62,408.99 -74.12,544.14 -79.65,535.04 "/>
     <polygon id="_239_238" class="fil12" points="330.62,408.99 -78.55,536.86 -83.77,527.66 "/>
     <polygon id="_240_239" class="fil11" points="330.62,408.99 -82.73,529.5 -87.64,520.21 "/>
     <polygon id="_241_240" class="fil134" points="330.62,408.99 -86.66,522.07 -91.26,512.7 "/>
     <polygon id="_242_241" class="fil135" points="330.62,408.99 -90.34,514.57 -94.62,505.12 "/>
     <polygon id="_243_242" class="fil9" points="330.62,408.99 -93.77,507.01 -97.73,497.48 "/>
     <polygon id="_244_243" class="fil8" points="330.62,408.99 -96.94,499.38 -100.58,489.79 "/>
     <polygon id="_245_244" class="fil7" points="330.62,408.99 -99.85,491.71 -103.17,482.05 "/>
     <polygon id="_246_245" class="fil6" points="330.62,408.99 -102.51,483.98 -105.5,474.27 "/>
     <polygon id="_247_246" class="fil5" points="330.62,408.99 -104.9,476.21 -107.57,466.44 "/>
     <polygon id="_248_247" class="fil4" points="330.62,408.99 -107.03,468.4 -109.37,458.59 "/>
     <polygon id="_249_248" class="fil136" points="330.62,408.99 -108.9,460.55 -110.9,450.7 "/>
     <polygon id="_250_249" class="fil137" points="330.62,408.99 -110.5,452.67 -112.18,442.79 "/>
     <polygon id="_251_250" class="fil1" points="330.62,408.99 -111.84,444.76 -113.18,434.85 "/>
     <polygon id="_252_251" class="fil0" points="330.62,408.99 -112.91,436.84 -113.92,426.91 "/>
     <polygon id="_253_252" class="fil138" points="330.62,408.99 -113.72,428.89 -114.39,418.95 "/>
     <polygon id="_254_253" class="fil139" points="330.62,408.99 -114.25,420.94 -114.59,410.98 "/>
     <polygon id="_255_254" class="fil140" points="330.62,408.99 -114.52,412.97 -114.52,405.01 "/>
    </g>
   </g>
   <path class="fil141" d="M348.69 250.24l2.43 -1.31c-1.18,28.61 0,56.88 2.8,84.93l-17.92 -4.48c3.69,-26.52 6.45,-53.26 12.69,-79.14z"/>
   <path class="fil142" d="M451.64 382.01l-46.59 -26.85c64.83,-30.94 136.38,-47.95 214.54,-48.71 -0.93,10.71 -2.28,21.3 -4.25,31.73 -58.7,4.98 -113.42,19.19 -163.7,43.82z"/>
   <path class="fil143" d="M152.31 362.25c123.34,8.31 230.72,55.29 311.28,146.54 -21.65,7.21 -44.35,11.54 -68.21,12.76 -57.36,-69.8 -133.22,-110.58 -229.47,-125.63 -5.76,-10.64 -10.12,-21.95 -13.61,-33.67z"/>
   <path class="fil142" d="M144.53 322.89c106.1,-7.49 205.07,16.54 290.38,68.33 -15.5,8.91 -31.31,19.42 -45.24,30 -69.41,-41.56 -148.07,-68.35 -241.19,-73.54 -1.87,-8.01 -3.2,-16.26 -3.94,-24.78z"/>
   <path class="fil144" d="M611.81 354.16c-73.63,5.5 -142.96,32.72 -206.07,77.75 14.54,10.16 29.49,21.62 42.71,34.06 46.4,-35.09 95.92,-60.84 149.72,-70.05 5.51,-13.8 10.02,-27.73 13.64,-41.75z"/>
   <path class="fil145" d="M484.66 502.87c-8.26,-9.53 -16.07,-17.8 -23.62,-25.02 38.4,-31.16 83.58,-56.21 130.9,-68.91 -32.55,47.74 -66.33,75.28 -107.28,93.93z"/>
   <path class="fil146" d="M174.37 410.92c41.34,66.02 106.96,103.22 197.57,110.77 -53.8,-58.14 -119.31,-95.67 -197.57,-110.77z"/>
   <path class="fil139" d="M133.29 156.84c17.54,-10.93 33.11,-7.9 49.31,-9.2 21.5,-1.72 21,-35.57 -3.95,-30.31 -12.09,2.55 -27.12,18.47 -45.36,39.51z"/>
   <path class="fil139" d="M68.13 148.32c-7.4,-19.67 -21.85,-26.86 -34.12,-37.92 -16.3,-14.69 5.04,-41.71 21.93,-22.03 8.18,9.53 10.47,31.69 12.2,59.95z"/>
   <path class="fil139" d="M87.29 131.13c-0.33,-15.35 -12.57,-22.95 -9.93,-34.67 3.73,-16.56 23.52,-16.63 25.9,1.3 1.62,12.23 -13.24,18.65 -15.97,33.38z"/>
   <path class="fil139" d="M10.31 155.59c6.15,1.84 12.28,-3.74 18.42,-5.61 -5.71,-4.94 -9.59,-15.23 -17.12,-14.82 -14,0.76 -16.4,15.9 -1.29,20.43z"/>
   <path class="fil139" d="M153.76 167.97c5.83,-0.07 12.98,-3.91 17.48,-0.22 7.45,6.11 0.83,15.27 -8.49,12.23 -4.76,-1.55 -5.99,-8.01 -8.99,-12.01z"/>
  </g>
  <g id="_1431964011328">
   <path class="fil147" d="M858.37 201.58l43.52 0 0 204.35 -43.52 0 0 -84.83 -94.92 0 0 84.83 -43.52 0 0 -204.35 43.52 0 0 81.68 94.92 0 0 -81.68zm89.88 204.35l0 -204.35 43.52 0 0 204.35 -43.52 0zm156.73 -204.35c35.32,0 62.75,7.73 82.31,23.18 19.55,15.45 29.33,41.78 29.33,79 0,22.71 -5.15,41.73 -15.45,57.08 -10.3,15.35 -24.02,26.7 -41.15,34.06 -17.13,7.36 -36,11.04 -56.61,11.04l-66.54 0 0 -204.35 68.12 0zm-10.09 165.88c17.97,0 32.32,-1.73 43.1,-5.2 10.77,-3.47 18.87,-9.83 24.33,-19.08 5.52,-9.25 8.25,-22.39 8.25,-39.42 0,-15.77 -2.47,-28.28 -7.41,-37.53 -4.94,-9.25 -12.25,-15.93 -21.86,-20.03 -9.67,-4.1 -21.86,-6.15 -36.58,-6.15l-24.33 0 0 127.4 14.51 0zm318.19 35.95l0 2.52 -50.04 0 -51.35 -74.42 -17.19 0 0 74.42 -43.52 0 0 -204.35 68.43 0c18.08,0 33.16,2.79 45.25,8.36 12.09,5.57 21.08,13.14 26.96,22.7 5.89,9.57 8.83,20.45 8.83,32.64 0,14.3 -3.57,26.65 -10.72,37.05 -7.15,10.41 -17.66,18.13 -31.53,23.18l54.87 77.89zm-118.57 -105.64l19.66 0c12.88,0 22.81,-2.42 29.8,-7.25 6.99,-4.84 10.46,-12.82 10.46,-23.97 0,-9.67 -3.1,-16.92 -9.35,-21.76 -6.2,-4.84 -14.93,-7.25 -26.07,-7.25l-24.49 0 0 60.23zm232.41 112.58c-21.86,0 -40.42,-4.52 -55.66,-13.56 -15.24,-9.04 -26.75,-21.6 -34.53,-37.68 -7.78,-16.08 -11.67,-34.74 -11.67,-55.97 0,-23.55 4.73,-43.26 14.19,-59.13 9.46,-15.87 22.02,-27.65 37.68,-35.32 15.66,-7.67 33.06,-11.51 52.19,-11.51 21.86,0 40.42,4.52 55.66,13.56 15.24,9.04 26.7,21.6 34.37,37.68 7.67,16.08 11.51,34.74 11.51,55.98 0,23.55 -4.68,43.26 -14.03,59.13 -9.36,15.87 -21.86,27.65 -37.53,35.32 -15.66,7.67 -33.06,11.51 -52.19,11.51zm0 -36.58c12.4,0 22.97,-2.79 31.69,-8.36 8.72,-5.57 15.24,-13.56 19.55,-23.97 4.31,-10.41 6.46,-22.65 6.46,-36.74 0,-22.28 -4.73,-39.68 -14.19,-52.19 -9.46,-12.51 -23.23,-18.76 -41.31,-18.76 -18.92,0 -33.32,6.15 -43.2,18.45 -9.88,12.3 -14.82,29.17 -14.82,50.61 0,22.28 4.73,39.68 14.19,52.19 9.46,12.51 23.34,18.76 41.63,18.76zm201.82 36.58c-31.53,0 -58.34,-8.2 -80.41,-24.6l20.18 -31.22c19.55,12.4 38.68,18.61 57.39,18.61 11.98,0 21.39,-1.89 28.22,-5.68 6.83,-3.78 10.25,-9.46 10.25,-17.03 0,-4.63 -1.1,-8.46 -3.31,-11.51 -2.21,-3.05 -6.1,-5.99 -11.67,-8.83 -5.57,-2.84 -13.93,-6.46 -25.07,-10.88l-7.25 -2.84c-13.45,-5.26 -24.28,-10.3 -32.48,-15.14 -8.2,-4.84 -14.72,-11.04 -19.55,-18.61 -4.84,-7.57 -7.25,-17.13 -7.25,-28.7 0,-12.82 3.68,-23.49 11.04,-32.01 7.36,-8.51 16.82,-14.77 28.38,-18.76 11.56,-3.99 23.86,-5.99 36.9,-5.99 11.77,0 23.91,1.94 36.42,5.83 12.51,3.89 24.44,9.62 35.79,17.19l-20.39 30.9c-9.99,-6.1 -18.87,-10.51 -26.65,-13.24 -7.73,-2.73 -16.08,-4.1 -25.07,-4.1 -9.99,0 -17.55,1.68 -22.71,5.05 -5.1,3.36 -7.67,7.88 -7.67,13.56 0,3.57 1.05,6.78 3.15,9.62 2.05,2.84 5.83,5.68 11.25,8.51 5.47,2.84 13.3,6.15 23.55,9.93l6.88 2.52c13.35,5.05 24.18,9.78 32.43,14.19 8.25,4.42 15.24,10.72 20.87,18.92 5.62,8.2 8.46,18.82 8.46,31.85 0,13.67 -3.57,25.18 -10.72,34.53 -7.15,9.35 -16.87,16.35 -29.17,20.97 -12.3,4.62 -26.23,6.94 -41.78,6.94zm280.98 -208.76l0 2.52 -75.68 116.68 0 85.14 -43.52 0 0 -83.88 -73.79 -117.94 0 -2.52 50.46 0 46.04 78.84 47.93 -78.84 48.56 0zm80.73 208.76c-31.53,0 -58.34,-8.2 -80.41,-24.6l20.18 -31.22c19.55,12.4 38.68,18.61 57.39,18.61 11.98,0 21.39,-1.89 28.22,-5.68 6.83,-3.78 10.25,-9.46 10.25,-17.03 0,-4.63 -1.1,-8.46 -3.31,-11.51 -2.21,-3.05 -6.1,-5.99 -11.67,-8.83 -5.57,-2.84 -13.93,-6.46 -25.07,-10.88l-7.25 -2.84c-13.45,-5.26 -24.28,-10.3 -32.48,-15.14 -8.2,-4.84 -14.72,-11.04 -19.55,-18.61 -4.84,-7.57 -7.25,-17.13 -7.25,-28.7 0,-12.82 3.68,-23.49 11.04,-32.01 7.36,-8.51 16.82,-14.77 28.38,-18.76 11.56,-3.99 23.86,-5.99 36.9,-5.99 11.77,0 23.91,1.94 36.42,5.83 12.51,3.89 24.44,9.62 35.79,17.19l-20.39 30.9c-9.99,-6.1 -18.87,-10.51 -26.65,-13.24 -7.73,-2.73 -16.08,-4.1 -25.07,-4.1 -9.99,0 -17.55,1.68 -22.71,5.05 -5.1,3.36 -7.67,7.88 -7.67,13.56 0,3.57 1.05,6.78 3.15,9.62 2.05,2.84 5.83,5.68 11.25,8.51 5.47,2.84 13.3,6.15 23.55,9.93l6.88 2.52c13.35,5.05 24.18,9.78 32.43,14.19 8.25,4.42 15.24,10.72 20.87,18.92 5.62,8.2 8.46,18.82 8.46,31.85 0,13.67 -3.57,25.18 -10.72,34.53 -7.15,9.35 -16.87,16.35 -29.17,20.97 -12.3,4.62 -26.23,6.94 -41.78,6.94zm266.79 -208.76l0 38.16 -64.96 0 0 166.19 -43.52 0 0 -166.19 -65.28 0 0 -38.16 173.76 0zm70.01 167.77l94.61 0 0 36.58 -138.12 0 0 -204.35 136.55 0 0 36.27 -93.03 0 0 46.04 80.41 0 -5.1 35.95 -75.32 0 0 49.51zm351.93 -167.77l0 204.35 -43.52 0 0 -127.09c-2.73,7.78 -7.41,17.97 -13.93,30.59l-35.48 71.27 -34.53 0 -36.16 -71.27c-6.52,-12.82 -11.2,-23.02 -13.93,-30.59l0 127.09 -43.52 0 0 -204.35 46.04 0 46.67 89.56c3.57,6.94 6.94,14.03 10.09,21.29 3.15,7.25 5.68,13.61 7.57,19.08 3,-9.67 8.93,-23.13 17.82,-40.36l47.46 -89.56 45.41 0z"/>
   <path class="fil148" d="M722.8 570.01l0 -60.89 8.65 0 0 60.89 -8.65 0zm99.83 -60.89l0 60.89 -9.58 0 -26.78 -39.47 -1.22 -1.79c-0.13,-0.25 -0.52,-0.85 -1.17,-1.79 -0.66,-0.94 -1.22,-1.82 -1.69,-2.63 -0.47,-0.81 -0.89,-1.63 -1.27,-2.44l0 48.11 -8.27 0 0 -60.89 9.12 0 27.53 40.31c0.25,0.38 0.78,1.14 1.6,2.3 0.81,1.16 1.5,2.22 2.07,3.19 0.56,0.97 1.03,1.9 1.41,2.77l0 -48.58 8.27 0zm86.02 0l0 7.52 -21.05 0 0 53.37 -8.65 0 0 -53.37 -21.14 0 0 -7.52 50.84 0zm43.83 53.56l29.88 0 0 7.33 -38.53 0 0 -60.89 38.06 0 0 7.33 -29.41 0 0 18.98 25.75 0 -0.94 7.14 -24.81 0 0 20.11zm115.34 -26.41l0 29.69c-3.7,1.75 -7.17,3.05 -10.43,3.9 -3.26,0.85 -7.05,1.27 -11.37,1.27 -6.7,0 -12.22,-1.35 -16.54,-4.04 -4.32,-2.69 -7.49,-6.39 -9.49,-11.09 -2,-4.7 -3.01,-10.15 -3.01,-16.35 0,-7.27 1.32,-13.27 3.95,-17.99 2.63,-4.73 6.14,-8.19 10.52,-10.38 4.39,-2.19 9.24,-3.29 14.57,-3.29 3.95,0 7.58,0.47 10.9,1.41 3.32,0.94 6.45,2.32 9.4,4.13l-3.76 6.58c-2.19,-1.38 -4.59,-2.49 -7.19,-3.34 -2.6,-0.85 -5.5,-1.27 -8.69,-1.27 -7.08,0 -12.26,2.11 -15.55,6.34 -3.29,4.23 -4.93,10.04 -4.93,17.43 0,7.77 1.57,13.77 4.7,17.99 3.13,4.23 8.24,6.34 15.32,6.34 4.39,0 8.71,-0.78 12.97,-2.35l0 -17.67 -15.6 0 0.94 -7.33 23.3 0zm84.05 33.17l0 0.56 -9.96 0 -17.57 -23.77 -9.02 0 0 23.77 -8.65 0 0 -60.89 19.83 0c4.76,0 8.79,0.75 12.07,2.26 3.29,1.5 5.76,3.6 7.42,6.3 1.66,2.69 2.49,5.83 2.49,9.4 0,2.88 -0.55,5.54 -1.64,7.99 -1.1,2.44 -2.74,4.56 -4.93,6.34 -2.19,1.79 -4.92,3.09 -8.18,3.9l18.14 24.15zm-36.55 -30.35l9.87 0c4.7,0 8.25,-1.02 10.67,-3.05 2.41,-2.04 3.62,-4.9 3.62,-8.6 0,-3.57 -1.11,-6.3 -3.34,-8.18 -2.22,-1.88 -5.5,-2.82 -9.82,-2.82l-10.99 0 0 22.65zm99.04 -29.98l22.88 60.33 0 0.56 -9.01 0 -6.37 -17.38 -25.94 0 -6.31 17.38 -8.66 0 0 -0.56 22.88 -60.33 10.52 0zm-15.8 36.37l20.67 0 -10.32 -28.19 -10.35 28.19zm109.58 -36.37l0 7.52 -21.05 0 0 53.37 -8.65 0 0 -53.37 -21.14 0 0 -7.52 50.84 0zm43.83 53.56l29.88 0 0 7.33 -38.53 0 0 -60.89 38.06 0 0 7.33 -29.41 0 0 18.98 25.75 0 -0.94 7.14 -24.81 0 0 20.11zm115.34 7.33l0 -60.89 8.65 0 0 60.89 -8.65 0zm95.04 -0.56l0 0.56 -9.96 0 -17.57 -23.77 -9.02 0 0 23.77 -8.65 0 0 -60.89 19.83 0c4.76,0 8.79,0.75 12.07,2.26 3.29,1.5 5.76,3.6 7.42,6.3 1.66,2.69 2.49,5.83 2.49,9.4 0,2.88 -0.55,5.54 -1.64,7.99 -1.1,2.44 -2.74,4.56 -4.93,6.34 -2.19,1.79 -4.92,3.09 -8.18,3.9l18.14 24.15zm-36.55 -30.35l9.87 0c4.7,0 8.25,-1.02 10.67,-3.05 2.41,-2.04 3.62,-4.9 3.62,-8.6 0,-3.57 -1.11,-6.3 -3.34,-8.18 -2.22,-1.88 -5.5,-2.82 -9.82,-2.82l-10.99 0 0 22.65zm116.94 30.35l0 0.56 -9.96 0 -17.57 -23.77 -9.02 0 0 23.77 -8.65 0 0 -60.89 19.83 0c4.76,0 8.79,0.75 12.07,2.26 3.29,1.5 5.76,3.6 7.42,6.3 1.66,2.69 2.49,5.83 2.49,9.4 0,2.88 -0.55,5.54 -1.64,7.99 -1.1,2.44 -2.74,4.56 -4.93,6.34 -2.19,1.79 -4.92,3.09 -8.18,3.9l18.14 24.15zm-36.55 -30.35l9.87 0c4.7,0 8.25,-1.02 10.67,-3.05 2.41,-2.04 3.62,-4.9 3.62,-8.6 0,-3.57 -1.11,-6.3 -3.34,-8.18 -2.22,-1.88 -5.5,-2.82 -9.82,-2.82l-10.99 0 0 22.65zm71.74 30.92l0 -60.89 8.65 0 0 60.89 -8.65 0zm97.2 -33.73l0 29.69c-3.7,1.75 -7.17,3.05 -10.43,3.9 -3.26,0.85 -7.05,1.27 -11.37,1.27 -6.7,0 -12.22,-1.35 -16.54,-4.04 -4.32,-2.69 -7.49,-6.39 -9.49,-11.09 -2,-4.7 -3.01,-10.15 -3.01,-16.35 0,-7.27 1.32,-13.27 3.95,-17.99 2.63,-4.73 6.14,-8.19 10.52,-10.38 4.39,-2.19 9.24,-3.29 14.57,-3.29 3.95,0 7.58,0.47 10.9,1.41 3.32,0.94 6.45,2.32 9.4,4.13l-3.76 6.58c-2.19,-1.38 -4.59,-2.49 -7.19,-3.34 -2.6,-0.85 -5.5,-1.27 -8.69,-1.27 -7.08,0 -12.26,2.11 -15.55,6.34 -3.29,4.23 -4.93,10.04 -4.93,17.43 0,7.77 1.57,13.77 4.7,17.99 3.13,4.23 8.24,6.34 15.32,6.34 4.39,0 8.71,-0.78 12.97,-2.35l0 -17.67 -15.6 0 0.94 -7.33 23.3 0zm65.21 -27.16l22.88 60.33 0 0.56 -9.01 0 -6.37 -17.38 -25.94 0 -6.31 17.38 -8.66 0 0 -0.56 22.88 -60.33 10.52 0zm-15.8 36.37l20.67 0 -10.32 -28.19 -10.35 28.19zm109.58 -36.37l0 7.52 -21.05 0 0 53.37 -8.65 0 0 -53.37 -21.14 0 0 -7.52 50.84 0zm35.18 60.89l0 -60.89 8.65 0 0 60.89 -8.65 0zm74.75 1.13c-6.08,0 -11.25,-1.33 -15.5,-3.99 -4.26,-2.66 -7.47,-6.37 -9.63,-11.14 -2.16,-4.76 -3.24,-10.31 -3.24,-16.63 0,-7.02 1.32,-12.87 3.95,-17.57 2.63,-4.7 6.14,-8.18 10.52,-10.43 4.39,-2.26 9.24,-3.38 14.57,-3.38 6.08,0 11.24,1.33 15.5,3.99 4.26,2.66 7.47,6.37 9.63,11.14 2.16,4.76 3.24,10.31 3.24,16.63 0,7.02 -1.32,12.87 -3.95,17.57 -2.63,4.7 -6.14,8.18 -10.52,10.43 -4.39,2.26 -9.24,3.38 -14.56,3.38zm0 -7.33c4.45,0 8.16,-1.02 11.14,-3.05 2.98,-2.04 5.2,-4.84 6.67,-8.41 1.47,-3.57 2.21,-7.74 2.21,-12.5 0,-4.89 -0.7,-9.16 -2.11,-12.83 -1.41,-3.66 -3.55,-6.53 -6.44,-8.6 -2.88,-2.07 -6.48,-3.1 -10.81,-3.1 -4.45,0 -8.16,1.02 -11.14,3.05 -2.98,2.04 -5.2,4.84 -6.67,8.41 -1.47,3.57 -2.21,7.74 -2.21,12.5 0,4.89 0.7,9.16 2.11,12.83 1.41,3.66 3.55,6.53 6.44,8.6 2.88,2.07 6.48,3.1 10.81,3.1zm116.75 -54.69l0 60.89 -9.58 0 -26.78 -39.47 -1.22 -1.79c-0.13,-0.25 -0.52,-0.85 -1.17,-1.79 -0.66,-0.94 -1.22,-1.82 -1.69,-2.63 -0.47,-0.81 -0.89,-1.63 -1.27,-2.44l0 48.11 -8.27 0 0 -60.89 9.12 0 27.53 40.31c0.25,0.38 0.78,1.14 1.6,2.3 0.81,1.16 1.5,2.22 2.07,3.19 0.56,0.97 1.03,1.9 1.41,2.77l0 -48.58 8.27 0zm105.57 62.02c-4.39,0 -8.43,-0.61 -12.12,-1.83 -3.7,-1.22 -6.95,-2.93 -9.77,-5.12l4.13 -6.2c2.51,1.94 5.34,3.4 8.5,4.37 3.16,0.97 6.16,1.46 8.97,1.46 4.51,0 7.94,-0.81 10.29,-2.44 2.35,-1.63 3.52,-4.1 3.52,-7.42 0,-1.94 -0.42,-3.54 -1.27,-4.79 -0.85,-1.25 -2.22,-2.4 -4.13,-3.43 -1.91,-1.03 -4.65,-2.18 -8.22,-3.43l-1.6 -0.56c-3.95,-1.38 -7.14,-2.74 -9.58,-4.09 -2.44,-1.35 -4.42,-3.12 -5.92,-5.31 -1.5,-2.19 -2.26,-4.95 -2.26,-8.27 0,-3.51 0.96,-6.47 2.87,-8.88 1.91,-2.41 4.43,-4.21 7.56,-5.4 3.13,-1.19 6.48,-1.79 10.05,-1.79 3.76,0 7.31,0.47 10.67,1.41 3.35,0.94 6.62,2.47 9.82,4.6l-3.95 6.2c-2.76,-1.75 -5.42,-3.02 -7.99,-3.81 -2.57,-0.78 -5.45,-1.17 -8.65,-1.17 -3.32,0 -6.08,0.69 -8.27,2.07 -2.19,1.38 -3.29,3.51 -3.29,6.39 0,1.5 0.36,2.82 1.08,3.95 0.72,1.13 1.97,2.19 3.76,3.19 1.79,1 4.28,2.07 7.47,3.19l1.6 0.56c4.2,1.44 7.55,2.8 10.05,4.09 2.51,1.28 4.67,3.13 6.48,5.54 1.82,2.41 2.73,5.53 2.73,9.35 0,3.82 -0.91,7.03 -2.73,9.63 -1.82,2.6 -4.42,4.57 -7.8,5.92 -3.38,1.35 -7.39,2.02 -12.03,2.02zm104.91 -62.02l0 0.56 -22.55 36.55 0 23.77 -8.65 0 0 -24.06 -21.89 -36.27 0 -0.56 9.49 0 17.01 29.22 17.67 -29.22 8.93 0zm49.28 62.02c-4.39,0 -8.43,-0.61 -12.12,-1.83 -3.7,-1.22 -6.95,-2.93 -9.77,-5.12l4.13 -6.2c2.51,1.94 5.34,3.4 8.5,4.37 3.16,0.97 6.16,1.46 8.97,1.46 4.51,0 7.94,-0.81 10.29,-2.44 2.35,-1.63 3.52,-4.1 3.52,-7.42 0,-1.94 -0.42,-3.54 -1.27,-4.79 -0.85,-1.25 -2.22,-2.4 -4.13,-3.43 -1.91,-1.03 -4.65,-2.18 -8.22,-3.43l-1.6 -0.56c-3.95,-1.38 -7.14,-2.74 -9.58,-4.09 -2.44,-1.35 -4.42,-3.12 -5.92,-5.31 -1.5,-2.19 -2.26,-4.95 -2.26,-8.27 0,-3.51 0.96,-6.47 2.87,-8.88 1.91,-2.41 4.43,-4.21 7.56,-5.4 3.13,-1.19 6.48,-1.79 10.05,-1.79 3.76,0 7.31,0.47 10.67,1.41 3.35,0.94 6.62,2.47 9.82,4.6l-3.95 6.2c-2.76,-1.75 -5.42,-3.02 -7.99,-3.81 -2.57,-0.78 -5.45,-1.17 -8.65,-1.17 -3.32,0 -6.08,0.69 -8.27,2.07 -2.19,1.38 -3.29,3.51 -3.29,6.39 0,1.5 0.36,2.82 1.08,3.95 0.72,1.13 1.97,2.19 3.76,3.19 1.79,1 4.28,2.07 7.47,3.19l1.6 0.56c4.2,1.44 7.55,2.8 10.05,4.09 2.51,1.28 4.67,3.13 6.48,5.54 1.82,2.41 2.73,5.53 2.73,9.35 0,3.82 -0.91,7.03 -2.73,9.63 -1.82,2.6 -4.42,4.57 -7.8,5.92 -3.38,1.35 -7.39,2.02 -12.03,2.02zm104.16 -62.02l0 7.52 -21.05 0 0 53.37 -8.65 0 0 -53.37 -21.14 0 0 -7.52 50.84 0zm43.83 53.56l29.88 0 0 7.33 -38.53 0 0 -60.89 38.06 0 0 7.33 -29.41 0 0 18.98 25.75 0 -0.94 7.14 -24.81 0 0 20.11zm129.9 -53.56l0 60.89 -8.46 0 0 -46.8c-0.94,2.69 -2.16,5.51 -3.66,8.46l-14.66 28.47 -8.36 0 -14.38 -28.47c-0.81,-1.57 -1.58,-3.09 -2.3,-4.56 -0.72,-1.47 -1.3,-2.74 -1.74,-3.81l0 46.7 -8.27 0 0 -60.89 9.87 0 13.72 26.87c3.7,7.27 6.17,12.75 7.42,16.44 0.69,-2.13 1.64,-4.54 2.87,-7.24 1.22,-2.69 2.74,-5.76 4.56,-9.21l13.81 -26.87 9.58 0zm58.21 62.02c-4.39,0 -8.43,-0.61 -12.12,-1.83 -3.7,-1.22 -6.95,-2.93 -9.77,-5.12l4.13 -6.2c2.51,1.94 5.34,3.4 8.5,4.37 3.16,0.97 6.16,1.46 8.97,1.46 4.51,0 7.94,-0.81 10.29,-2.44 2.35,-1.63 3.52,-4.1 3.52,-7.42 0,-1.94 -0.42,-3.54 -1.27,-4.79 -0.85,-1.25 -2.22,-2.4 -4.13,-3.43 -1.91,-1.03 -4.65,-2.18 -8.22,-3.43l-1.6 -0.56c-3.95,-1.38 -7.14,-2.74 -9.58,-4.09 -2.44,-1.35 -4.42,-3.12 -5.92,-5.31 -1.5,-2.19 -2.26,-4.95 -2.26,-8.27 0,-3.51 0.96,-6.47 2.87,-8.88 1.91,-2.41 4.43,-4.21 7.56,-5.4 3.13,-1.19 6.48,-1.79 10.05,-1.79 3.76,0 7.31,0.47 10.67,1.41 3.35,0.94 6.62,2.47 9.82,4.6l-3.95 6.2c-2.76,-1.75 -5.42,-3.02 -7.99,-3.81 -2.57,-0.78 -5.45,-1.17 -8.65,-1.17 -3.32,0 -6.08,0.69 -8.27,2.07 -2.19,1.38 -3.29,3.51 -3.29,6.39 0,1.5 0.36,2.82 1.08,3.95 0.72,1.13 1.97,2.19 3.76,3.19 1.79,1 4.28,2.07 7.47,3.19l1.6 0.56c4.2,1.44 7.55,2.8 10.05,4.09 2.51,1.28 4.67,3.13 6.48,5.54 1.82,2.41 2.73,5.53 2.73,9.35 0,3.82 -0.91,7.03 -2.73,9.63 -1.82,2.6 -4.42,4.57 -7.8,5.92 -3.38,1.35 -7.39,2.02 -12.03,2.02z"/>
  </g>
 </g>
</svg>
