<svg xmlns="http://www.w3.org/2000/svg" version="1.1" xmlns:xlink="http://www.w3.org/1999/xlink" width="512" height="512" x="0" y="0" viewBox="0 0 96 96" style="enable-background:new 0 0 512 512" xml:space="preserve" class=""><g><g data-name="Worker Insurance"><path fill="#a9b1ff" d="M64.46 95H3.38l3.18-18.07A8.68 8.68 0 0 1 12.92 70l13.7-3.54h14.57L54.91 70a8.68 8.68 0 0 1 6.36 6.9z" opacity="1" data-original="#a9b1ff"></path><path fill="#c7cfff" d="M58.56 95H9.28l2.57-14.58A7 7 0 0 1 17 74.86l6.83-1.77L22.42 78l11.42 1.29L45.26 78l-1.4-4.91 7 1.81A7 7 0 0 1 56 80.42z" opacity="1" data-original="#c7cfff" class=""></path><path fill="#ffffff" d="M41.16 82.45c-7.7.87-7.22.84-7.56.8l-7.85-.89a2.1 2.1 0 0 0-2.33 2.09v4.45a2.1 2.1 0 0 0 2.1 2.1H41.4a2.1 2.1 0 0 0 2.1-2.1v-4.36a2.1 2.1 0 0 0-2.34-2.09z" opacity="1" data-original="#ffffff"></path><path fill="#332f49" d="M17.47 68.84v26H3.38l3.18-17.97A8.66 8.66 0 0 1 12.91 70c.09 0-.08 0 4.56-1.16zM64.46 94.82h-14.1v-26L54.91 70a8.62 8.62 0 0 1 6.34 6.85z" opacity="1" data-original="#332f49"></path><path fill="#fb9c8b" d="m43.01 66.94-9.17 9.17-9.17-9.17 1.95-.45V52.37h14.41v14.12z" opacity="1" data-original="#fb9c8b" class=""></path><path fill="#fb7968" d="M41 52.37v11.78a19.16 19.16 0 0 1-14.41-.07V52.37z" opacity="1" data-original="#fb7968"></path><path fill="#e0edff" d="m24.67 66.94-2.25 7.89 11.42 1.28z" opacity="1" data-original="#e0edff"></path><path fill="#e0edff" d="m43.01 66.94 2.25 7.89-11.42 1.28z" opacity="1" data-original="#e0edff"></path><path fill="#fb9c8b" d="M55.35 43H12.49a4.7 4.7 0 1 1 0-9.39h42.86a4.7 4.7 0 0 1 0 9.39z" opacity="1" data-original="#fb9c8b" class=""></path><path fill="#fbbaae" d="M33.92 62.17a19.23 19.23 0 0 1-19.23-19.23v-6.65a19.23 19.23 0 1 1 38.45 0v6.65a19.22 19.22 0 0 1-19.22 19.23z" opacity="1" data-original="#fbbaae"></path><path fill="#302d3d" d="M26.51 40.3a1 1 0 0 1-1-1v-2.06a1 1 0 0 1 2 0v2.06a1 1 0 0 1-1 1zM41.32 40.3a1 1 0 0 1-1-1v-2.06a1 1 0 0 1 2 0v2.06a1 1 0 0 1-1 1z" opacity="1" data-original="#302d3d"></path><path fill="#fb9c8b" d="M29.92 52.44A1 1 0 0 1 31.29 51a3.93 3.93 0 0 0 5.25 0 1 1 0 0 1 1.37 1.45 5.81 5.81 0 0 1-7.99-.01z" opacity="1" data-original="#fb9c8b" class=""></path><path fill="#f9a128" d="M53.88 33.58H13.8a3.54 3.54 0 0 1 0-7.07h40.08a3.54 3.54 0 0 1 0 7.07z" opacity="1" data-original="#f9a128"></path><path fill="#f9bf41" d="M43.41 33.58H24.27a3.54 3.54 0 0 1 0-7.07h19.14a3.54 3.54 0 0 1 0 7.07z" opacity="1" data-original="#f9bf41"></path><path fill="#ffae56" d="M54.93 26.51c-42.92 0-41.66-.1-41.66 0A20.62 20.62 0 0 1 33.89 5.9a20.61 20.61 0 0 1 21.04 20.61z" opacity="1" data-original="#ffae56" class=""></path><path fill="#ffc756" d="M44.25 26.51H24V16.05a10.15 10.15 0 1 1 20.3 0z" opacity="1" data-original="#ffc756" class=""></path><path fill="#383953" d="M54.93 95h-4.57V68.84L54.91 70c.09 0 .02 0 .02 25zM17.47 68.84V95h-4.56c0-25.32-.1-25 0-25z" opacity="1" data-original="#383953"></path><path fill="#4c4d67" d="M54.93 77.78V95h-4.57V74.73l.49.13a6.94 6.94 0 0 1 4.08 2.92zM17.47 74.73V95h-4.56V77.76a7 7 0 0 1 4.09-2.9z" opacity="1" data-original="#4c4d67" class=""></path><path fill="#ffef56" d="M37.89 26.51h-7.58l-1.51-23A2.32 2.32 0 0 1 31.12 1h6a2.32 2.32 0 0 1 2.28 2.48z" opacity="1" data-original="#ffef56" class=""></path><circle cx="34.1" cy="15.14" r="7.22" fill="#5ecaff" opacity="1" data-original="#5ecaff" class=""></circle><circle cx="34.1" cy="15.14" r="3.9" fill="#5e8ee1" opacity="1" data-original="#5e8ee1"></circle><path fill="#7498f0" d="M92.62 46.33V67c0 17.8-13.83 24.15-20.26 27.56l-.87.47c-5.16-2.91-11.34-5.64-15.89-11.63a25.39 25.39 0 0 1-5.16-14c-.13-1.73-.08-1.43-.08-23 3.15-.92 20.26-5.84 21.13-6.09.1-.03 14.85 4.19 21.13 6.02z" opacity="1" data-original="#7498f0" class=""></path><path fill="#515cd2" d="M90.63 64.84a1.49 1.49 0 0 1-1.49-1.48V51.61a3.53 3.53 0 0 0-1.32-2.75c-.8-.64-.18-.34-15.35-4.72a3.62 3.62 0 0 0-2 0C55 48.61 55.94 48.23 55.16 48.86a3.53 3.53 0 0 0-1.32 2.75v11.75a1.49 1.49 0 0 1-1.49 1.48h-2c0 4.15 0 8 2 12.87 4.13 10 13.21 13.94 19.16 17.29l.87-.47c6.41-3.41 20.24-9.76 20.24-27.53v-2.16z" opacity="1" data-original="#515cd2" class=""></path><g fill="#e0edff"><path d="M72.36 84.55v10l-.87.47-.87-.47v-10a.87.87 0 1 1 1.74 0zM92.62 46.33v1.08L84 54a.89.89 0 0 1-1.23-.17.87.87 0 0 1 .18-1.22L91.58 46zM58.12 52.16a.87.87 0 0 1-1.22.18l-6.54-4.93v-1.08l1-.3L58 51a.86.86 0 0 1 .12 1.16zM72.36 40.5v9.76a.87.87 0 0 1-1.74 0V40.5l.87-.26z" fill="#e0edff" opacity="1" data-original="#e0edff"></path></g><path fill="#ffffff" d="M88.86 50.24c-5.23 3.95-5 3.88-5.44 3.88a.87.87 0 0 1-.52-1.56l4.92-3.7a3.46 3.46 0 0 1 1.04 1.38zM58.12 52.16a.87.87 0 0 1-1.22.18l-2.78-2.1a3.46 3.46 0 0 1 1-1.38L58 51a.86.86 0 0 1 .12 1.16zM72.36 44.12v6.14a.87.87 0 0 1-1.74 0v-6.14a3.42 3.42 0 0 1 1.74 0z" opacity="1" data-original="#ffffff"></path><path fill="#ffbd38" d="M86.1 49.89a1.79 1.79 0 0 1 1.3 1.72c0 16.58.13 17.18-.43 20.07-1.8 9.5-9 13.95-14.62 16.95a1.77 1.77 0 0 1-1.7 0c-3.86-2.1-7.5-4.32-10.32-7.71A20.91 20.91 0 0 1 55.58 67V51.61a1.81 1.81 0 0 1 1.3-1.73L71 45.82c.66-.19.74-.07 4.31 1z" opacity="1" data-original="#ffbd38"></path><path fill="#ff9f38" d="M87.4 51.61v2.92a1.8 1.8 0 0 0-1.3-1.72L72 48.75c-.69-.2.29-.37-15.11 4.06a1.8 1.8 0 0 0-1.3 1.72v-2.92a1.81 1.81 0 0 1 1.3-1.73L71 45.82c1-.26 1.43.23 15.11 4.06a1.81 1.81 0 0 1 1.29 1.73zM87.4 58.06c0 8.88.13 10.71-.43 13.62-1.8 9.48-9 13.93-14.59 16.94a1.89 1.89 0 0 1-1.76 0c-.79-.43-1.62-.89-2.26-1.28C80.32 80.61 87.4 72.13 87.4 58.06z" opacity="1" data-original="#ff9f38" class=""></path><path fill="#ffdb56" d="M84.8 54.74a42.51 42.51 0 0 1-19 27.88 3.55 3.55 0 0 1-4.43-.53A20.77 20.77 0 0 1 55.58 67V54.7a2.07 2.07 0 0 1 1.5-2l13.61-3.92a2.9 2.9 0 0 1 1.6 0L83 51.89a2.49 2.49 0 0 1 1.8 2.85z" opacity="1" data-original="#ffdb56" class=""></path><path fill="#ffff79" d="M70.75 51.49 60 54.6a2.44 2.44 0 0 0-1.81 2.4v1.86a2.45 2.45 0 0 0 2.45 2.44h7.12a2.44 2.44 0 0 0 2-1l3.71-5a2.47 2.47 0 0 0-2.72-3.81z" opacity="1" data-original="#ffff79"></path><path fill="#ffbd38" d="m67.6 76-6.41-5a2.18 2.18 0 1 1 2.68-3.43l4.77 3.72L78.8 59.52a2.18 2.18 0 1 1 3.3 2.84L70.59 75.72a2.17 2.17 0 0 1-2.99.28z" opacity="1" data-original="#ffbd38"></path><path fill="#12c58b" d="m67.6 72.75-6.41-5a2.18 2.18 0 1 1 2.68-3.43L68.64 68 78.8 56.25a2.18 2.18 0 0 1 3.3 2.84L70.59 72.45a2.17 2.17 0 0 1-2.99.3z" opacity="1" data-original="#12c58b"></path><rect width="4.19" height="2.67" x="60.94" y="56.73" fill="#ffdb56" rx=".6" opacity="1" data-original="#ffdb56" class=""></rect></g></g></svg>